<svg width="1846" height="2409" viewBox="0 0 1846 2409" xmlns="http://www.w3.org/2000/svg" xmlns:xlink="http://www.w3.org/1999/xlink"><title>Book 3D</title><defs><path id="a" d="M0 50h1800v2360H0z"/><linearGradient x1="50%" y1="0%" x2="50%" y2="100%" id="c"><stop stop-color="#81D6EC" stop-opacity=".652" offset="0%"/><stop stop-color="#1CB0D6" offset="100%"/></linearGradient><path id="d" d="M1645 624h100v2411h-100z"/></defs><g fill="none" fill-rule="evenodd"><g transform="translate(0 -1)" id="Book"><path fill="#0A90B5" d="M50 1h1796v2360H50z"/><path id="Page-Copy" fill="#FFF" d="M34 16h1796v2360H34z"/><path fill="#F9F9F9" d="M30 20.208h1796v2360H30z"/><path fill="#F9F9F9" d="M30 20.208h1796v2360H30z"/><path fill="#FFF" d="M26 24.25h1796v2360H26z"/><path fill="#F9F9F9" d="M22 28.29h1796v2360H22z"/><path fill="#FFF" d="M18 32.333h1796v2360H18z"/><path id="Page-Copy-4" fill="#F9F9F9" d="M14 36.374h1796v2360H14z"/><path fill="#FFF" d="M10 40.416h1796v2360H10z"/><path fill="#F9F9F9" d="M6 44h1796v2360H6z"/><path d="M50.256.38v15.312l-34.1 34.88H.264L50.256.382z" fill="#0A90B5"/><mask id="b" fill="#fff"><use xlink:href="#a"/></mask><use fill-opacity=".5" fill="#D8D8D8" xlink:href="#a"/><g mask="url(#b)"><path fill="url(#c)" d="M1535 478h2221v2766H1535z" transform="translate(-1684 -603)"/><path d="M2913.092 2426.37c23.76-39.536 44.693-80.54 64.06-122.713 12.41-26.726 2.546-60.98-25.746-77.983l-150.553-90.472c-21.22-12.75-32.874-44.257-25.822-69.802 17.005-62.548 28.78-125.718 30.326-187.402.765-30 17.957-52.994 46.33-60.988l173.508-47.074c31.372-8.562 50.18-36.778 46.407-69.168-10.125-88.666-33.242-176.637-62.908-263.17-10.46-30.654-44.65-45.925-73.307-39.117l-173.7 42.025c-26.053 6.342-52.935-6.71-67.186-30.505-31.305-52.318-68.153-102.898-111.87-149.476-20.843-21.664-23.708-49.154-8.616-74.268l92.962-154.696c17.333-28.844 12.222-60.974-14.277-80.96-36.24-27.53-73.038-53.76-111.818-77.065-38.78-23.304-79.063-43.733-120.533-62.562-26.522-12.214-60.856-3.45-78.19 25.394l-92.96 154.697c-13 21.633-43.24 34.645-68.44 27.963-61.946-16.242-123.385-28.11-184.494-28.62-29.722-.26-52.462-17.365-59.657-45.72l-44.426-173.1c-7.95-31.516-35.745-49.77-67.763-45.656-88.05 11.73-175.784 36.81-261.905 67.978-30.56 11.08-45.946 44.738-39.293 73.442l38.69 174.59c5.597 26.04-8.43 54.997-32.107 69.537-52.387 32.485-104.575 69.677-151.24 114.74-21.828 21.404-47.938 25.477-72.572 10.674l-151.738-91.184c-28.293-17.002-60.684-13.217-80.944 13.868-27.904 37.045-54.527 74.63-78.286 114.165-23.758 39.535-45.42 81.747-64.787 123.922-12.56 26.974-2.545 60.98 25.747 77.982l151.738 91.185c21.22 12.75 31.69 43.543 24.637 69.09-17.155 62.795-28.78 125.717-30.326 187.4-.765 30-17.38 52.035-45.605 59.78l-172.323 47.786c-31.37 8.563-50.662 38.134-47.132 70.377 10.125 88.666 33.487 176.784 62.91 263.17 10.46 30.654 43.706 45.36 72.12 38.404l173.7-42.023c25.66-6.24 54.12 7.423 68.37 31.217 31.306 52.32 68.004 103.148 111.87 149.477 20.694 21.912 22.523 48.442 7.432 73.556l-92.963 154.696c-17.183 28.594-12.222 60.973 14.277 80.96 36.24 27.53 73.038 53.76 111.82 77.063 38.78 23.304 79.06 43.733 120.53 62.562 26.523 12.215 61.005 3.2 78.19-25.394l92.96-154.695c13-21.633 44.426-33.933 69.625-27.25 61.946 16.24 123.385 28.11 184.495 28.618 29.72.26 51.276 16.654 58.472 45.008l44.424 173.102c8.1 31.267 36.78 50.73 68.948 46.368 88.052-11.73 175.636-36.56 261.906-67.977 30.56-11.08 46.523-45.698 40.02-74.65l-39.875-175.303c-5.747-25.792 7.554-53.54 31.38-68.328 52.387-32.486 104.576-69.677 151.24-114.74 21.828-21.405 49.123-24.765 73.757-9.962l150.553 90.472c28.293 17.002 60.684 13.217 80.944-13.868 27.904-37.044 55.253-75.837 79.012-115.373zm-476.745-291.427c-161.977 269.54-509.86 359.834-774.248 200.955-264.39-158.88-346.764-507.73-184.787-777.27 161.976-269.542 507.948-359.338 772.336-200.46 264.386 158.88 348.673 507.234 186.697 776.775zM822.234 2517.16c23.76-39.535 44.843-80.787 64.062-122.713 12.558-26.975 2.3-61.127-25.748-77.982L708.81 2225.28c-21.22-12.752-31.69-43.545-24.637-69.09 17.154-62.797 28.928-125.967 30.325-187.402.915-30.25 17.23-51.786 45.605-59.78l173.048-48.994c31.13-8.71 50.182-36.78 46.407-69.17-10.274-88.416-33.242-176.635-62.908-263.168-10.612-30.406-43.464-45.213-72.122-38.405l-173.7 42.025c-25.66 6.24-54.27-7.175-68.372-31.218-31.304-52.318-68.002-103.146-111.87-149.475-20.693-21.913-22.67-48.193-7.43-73.556l92.962-154.696c17.333-28.844 12.222-60.974-14.277-80.96-36.24-27.53-73.036-53.76-111.816-77.065-38.78-23.304-79.212-43.484-120.532-62.56-26.278-12.07-60.856-3.45-78.19 25.393l-92.96 154.696c-13 21.633-44.425 33.932-69.624 27.25-61.554-16.343-123.535-27.86-184.496-28.618-29.87-.013-51.032-16.508-58.47-45.008l-44.425-173.1c-7.952-31.517-36.93-50.482-68.95-46.37-88.05 11.73-175.784 36.81-261.905 67.978-30.56 11.08-45.702 44.884-39.293 73.442l39.147 176.51c5.842 26.187-7.553 53.54-31.38 68.33-52.237 32.236-104.182 69.574-151.24 114.738-21.678 21.157-49.123 24.766-73.757 9.963l-150.553-90.474c-28.292-17.002-60.683-13.217-80.943 13.87-27.756 36.794-54.53 74.627-78.287 114.164-23.76 39.536-45.57 81.996-64.788 123.922-12.56 26.975-2.546 60.98 25.746 77.982l150.553 90.472c21.22 12.752 32.874 44.257 25.822 69.803-17.154 62.796-28.93 125.966-30.325 187.4-.766 30-17.38 52.035-45.605 59.78l-174.234 48.283c-31.52 8.81-49.936 36.924-46.406 69.168 10.275 88.418 33.337 177.033 62.91 263.17 10.46 30.655 44.89 46.072 73.305 39.117l173.7-42.023c25.904-6.094 53.18 6.857 67.186 30.505 31.155 52.566 68.003 103.145 111.87 149.475 20.693 21.912 23.708 49.154 8.616 74.268l-92.963 154.696c-17.333 28.843-12.073 60.724 14.277 80.96 36.39 27.28 73.037 53.76 111.817 77.063 38.78 23.305 79.213 43.485 120.533 62.562 26.67 11.966 60.856 3.45 78.19-25.394l92.96-154.695c12.85-21.384 43.24-34.645 68.44-27.964 61.945 16.244 123.384 28.112 184.494 28.62 29.72.262 52.46 17.367 59.657 45.72l44.424 173.102c8.1 31.267 35.596 50.017 67.763 45.656 87.904-11.482 175.786-36.81 261.907-67.977 30.71-11.328 45.553-44.635 39.294-73.442L255.35 2748.96c-5.748-25.79 7.553-53.54 31.38-68.328 52.63-32.34 104.425-69.43 151.24-114.74 21.922-21.01 47.937-25.478 72.57-10.674l151.74 91.184c28.048 16.856 60.683 13.217 80.943-13.868 27.757-36.796 55.256-75.837 79.014-115.373zm-478.657-290.93C181.6 2495.77-164.37 2585.567-428.76 2426.688c-264.386-158.88-348.673-507.233-186.697-776.774 161.977-269.54 509.86-359.834 774.248-200.954 264.39 158.88 346.764 507.728 184.787 777.27z" stroke="#0A90B5" stroke-width="12"/><path d="M675.813 857.03c.39-1.145.716-2.342.976-3.592s.455-2.598.585-4.043c.13-1.446.22-3.002.273-4.668.053-1.667.08-3.503.08-5.508v-38.83l-6.095-.78v-5.274h23.28v5.273l-5.897.82v33.437c0 2.11-.026 4.193-.08 6.25-.05 2.057-.135 4.01-.252 5.86-.118 1.85-.287 3.548-.508 5.097-.222 1.55-.502 2.884-.84 4.004-.807 2.422-2.005 4.55-3.594 6.387-1.588 1.836-3.36 3.385-5.312 4.648-1.953 1.263-3.998 2.246-6.133 2.95-2.136.703-4.154 1.132-6.055 1.29l-2.422-3.44c1.354-.468 2.644-1.015 3.867-1.64 1.224-.625 2.35-1.34 3.38-2.148 1.028-.807 1.946-1.712 2.753-2.715.808-1.002 1.472-2.13 1.992-3.38zm35.156-54.647c-.86 0-1.694-.143-2.5-.43-.81-.286-1.525-.696-2.15-1.23s-1.126-1.185-1.504-1.953c-.377-.77-.566-1.635-.566-2.598 0-1.068.234-2.057.703-2.97.47-.91 1.087-1.698 1.856-2.362.767-.664 1.626-1.185 2.577-1.563.95-.377 1.894-.566 2.832-.566 1.17 0 2.173.17 3.007.51.833.337 1.523.787 2.07 1.346.547.56.95 1.224 1.21 1.993.26.767.39 1.58.39 2.44 0 1.12-.226 2.135-.682 3.047-.456.91-1.055 1.686-1.797 2.324-.742.64-1.59 1.134-2.54 1.485-.95.352-1.92.528-2.91.528zm-9.962 48.164l5.86-1.016v-27.577l-5.157-4.414v-3.126l13.477-4.18 2.618.9v38.475l5.937.937V855h-22.734v-4.453zm28.984 0l5.078-.938v-28.32l-5.43-3.438v-3.83l12.735-3.788 2.383.782v5.664c.833-.808 1.823-1.59 2.97-2.344 1.144-.755 2.368-1.432 3.67-2.03 1.303-.6 2.65-1.09 4.043-1.466 1.395-.378 2.768-.593 4.122-.645 1.407-.078 2.735-.032 3.985.137 1.25.17 2.402.482 3.457.938 1.055.455 1.992 1.08 2.812 1.875.82.794 1.49 1.79 2.012 2.988.886-.73 1.882-1.445 2.988-2.15 1.107-.702 2.3-1.327 3.575-1.874 1.277-.548 2.618-.99 4.024-1.33 1.406-.337 2.852-.52 4.336-.546 2.526-.026 4.668.345 6.426 1.114 1.758.768 3.196 1.927 4.316 3.476 1.12 1.55 1.934 3.503 2.442 5.86.507 2.356.76 5.097.76 8.222v20.664l5.978.977V855H784.72v-4.453l4.882-.977v-19.1c0-2.5-.137-4.578-.41-6.232-.274-1.653-.736-2.968-1.387-3.945-.65-.977-1.537-1.654-2.657-2.03-1.12-.38-2.513-.555-4.18-.53-1.275.053-2.59.307-3.945.763-1.354.456-2.617 1.06-3.79 1.817.184.885.327 1.933.43 3.144.105 1.21.157 2.74.157 4.59v21.523l5.742.977V855h-22.5v-4.453l5.704-1.016v-19.49c0-2.5-.163-4.558-.49-6.173-.324-1.614-.852-2.89-1.58-3.828-.73-.938-1.68-1.576-2.852-1.915-1.172-.34-2.59-.456-4.258-.352-.495.053-1.055.15-1.68.293-.625.144-1.27.332-1.933.567-.664.234-1.322.527-1.973.88-.65.35-1.25.734-1.797 1.15v15.704c0 1.068-.006 2.2-.02 3.4-.012 1.197-.02 2.38-.02 3.553v6.25l5.43.977V855h-21.6v-4.453zm103.28-.078l6.37-1.525v-47.89l-6.095-.782v-5.937h17.265l24.65 41.72 4.374 10.194v-45.117l-6.797-.938v-5.86h20.077v5.86l-5.86.82V855H875.11l-23.243-37.89-4.687-10.82v42.577l7.773 1.602V855h-21.68v-4.53zm65.744-16.642c0-3.333.533-6.445 1.6-9.336 1.07-2.89 2.6-5.397 4.59-7.52 1.993-2.122 4.402-3.8 7.228-5.038 2.825-1.237 5.996-1.87 9.51-1.895 2.788-.027 5.223.344 7.306 1.112 2.083.77 3.822 1.862 5.215 3.282 1.393 1.42 2.454 3.138 3.183 5.156.73 2.018 1.146 4.264 1.25 6.738.053 1.64.013 3.08-.117 4.317s-.26 2.363-.39 3.378h-28.007c0 .08.006.15.02.215.012.065.02.124.02.176.155 2.682.604 4.96 1.347 6.836.742 1.875 1.718 3.405 2.93 4.59 1.21 1.185 2.61 2.05 4.198 2.597 1.59.547 3.282.82 5.08.82.962 0 1.984-.05 3.065-.155 1.08-.105 2.148-.26 3.203-.47 1.055-.208 2.077-.468 3.067-.78.99-.313 1.9-.678 2.734-1.094l1.797 4.22c-.886.754-1.992 1.45-3.32 2.088-1.33.638-2.774 1.18-4.337 1.62-1.562.444-3.21.783-4.94 1.017-1.733.235-3.458.34-5.177.313-3.36-.026-6.347-.56-8.965-1.602-2.617-1.042-4.824-2.513-6.62-4.414-1.798-1.9-3.158-4.212-4.083-6.934-.924-2.72-1.386-5.8-1.386-9.238zm28.79-5.35c.077-1.12.13-2.287.155-3.498.027-1.21-.045-2.376-.214-3.496-.17-1.12-.482-2.148-.937-3.086-.457-.937-1.128-1.705-2.013-2.304-.547-.365-1.185-.65-1.914-.86-.73-.208-1.563-.312-2.5-.312-1.537 0-2.884.35-4.043 1.055-1.16.703-2.142 1.666-2.95 2.89-.807 1.224-1.45 2.663-1.933 4.317-.482 1.653-.8 3.418-.957 5.293h17.305zm19.06-10.51l-4.257-.937v-5.74h19.92v5.74l-4.49 1.017 5.702 20.547 1.68 7.187 1.25-6.522 7.422-27.97h9.375l7.225 27.97 1.68 6.836 1.523-6.68 5.04-21.367-5-1.016v-5.74h17.85v5.702l-5.194 1.133-10.742 37.422H985.5l-7.07-24.258-1.64-7.267-1.485 7.266-6.446 24.257h-9.923l-12.07-37.578zm71.76-18.437l-5.665-1.835v-4.57l14.845-1.68 1.914.664v21.327c1.3-.91 2.883-1.712 4.745-2.402 1.862-.69 4.056-1.035 6.582-1.035 2.318 0 4.577.384 6.777 1.152 2.2.77 4.154 2 5.86 3.692 1.705 1.692 3.08 3.893 4.12 6.6 1.042 2.71 1.563 6.017 1.563 9.923 0 3.255-.56 6.374-1.68 9.356-1.12 2.98-2.708 5.612-4.765 7.89-2.057 2.28-4.538 4.095-7.442 5.45-2.903 1.354-6.126 2.03-9.667 2.03-1.954 0-3.9-.11-5.84-.33-1.94-.223-3.698-.496-5.274-.822-1.576-.324-2.91-.67-4.005-1.034-1.093-.364-1.784-.69-2.07-.976v-53.4zm11.093 48.36c.363.834 1.164 1.576 2.4 2.227 1.238.65 2.872.977 4.903.977 1.355 0 2.69-.306 4.004-.918 1.315-.612 2.494-1.628 3.536-3.047 1.04-1.42 1.894-3.302 2.558-5.646.665-2.343 1.036-5.234 1.114-8.672.08-2.916-.22-5.423-.898-7.52-.677-2.095-1.57-3.814-2.676-5.155-1.107-1.34-2.363-2.324-3.77-2.95-1.406-.625-2.812-.937-4.218-.937-1.64 0-3.034.19-4.18.566-1.146.378-2.07.75-2.773 1.114v29.96zm36.288-14.062c0-3.333.534-6.445 1.6-9.336 1.07-2.89 2.6-5.397 4.59-7.52 1.993-2.122 4.402-3.8 7.228-5.038 2.825-1.237 5.996-1.87 9.512-1.895 2.786-.027 5.22.344 7.304 1.112 2.084.77 3.822 1.862 5.215 3.282 1.393 1.42 2.454 3.138 3.184 5.156s1.146 4.264 1.25 6.738c.053 1.64.014 3.08-.117 4.317-.13 1.237-.26 2.363-.39 3.378h-28.008c0 .08.007.15.02.215.013.065.02.124.02.176.155 2.682.605 4.96 1.347 6.836.742 1.875 1.718 3.405 2.93 4.59 1.21 1.185 2.61 2.05 4.2 2.597 1.587.547 3.28.82 5.077.82.962 0 1.984-.05 3.065-.155 1.08-.105 2.15-.26 3.203-.47 1.055-.208 2.077-.468 3.067-.78.99-.313 1.9-.678 2.734-1.094l1.796 4.22c-.885.754-1.992 1.45-3.32 2.088-1.33.638-2.774 1.18-4.336 1.62-1.563.444-3.21.783-4.942 1.017-1.73.235-3.457.34-5.175.313-3.36-.026-6.348-.56-8.965-1.602-2.618-1.042-4.825-2.513-6.62-4.414-1.798-1.9-3.16-4.212-4.083-6.934-.925-2.72-1.387-5.8-1.387-9.238zm28.79-5.35c.077-1.12.13-2.287.155-3.498.026-1.21-.045-2.376-.215-3.496-.17-1.12-.48-2.148-.937-3.086-.455-.937-1.126-1.705-2.01-2.304-.548-.365-1.186-.65-1.915-.86-.73-.208-1.562-.312-2.5-.312-1.536 0-2.884.35-4.043 1.055-1.16.703-2.142 1.666-2.95 2.89-.806 1.224-1.45 2.663-1.933 4.317-.483 1.653-.802 3.418-.958 5.293h17.305zm18.75 22.07l5.468-.94v-28.32l-5.43-3.436v-3.83l12.695-3.788 2.384.743v6.953c.39-1.068 1.068-2.07 2.03-3.008.965-.938 2.033-1.75 3.204-2.442 1.172-.69 2.377-1.237 3.614-1.64 1.237-.404 2.35-.606 3.34-.606.885 0 1.7.033 2.44.098.743.065 1.27.163 1.583.293v10.47c-.755-.496-1.75-.893-2.988-1.193-1.237-.3-2.507-.45-3.81-.45-1.093 0-2.056.066-2.89.196-.833.13-1.575.3-2.226.508-.65.21-1.203.43-1.66.664-.455.235-.84.456-1.152.664v27.89l9.96 1.173V855h-26.56v-4.453zm38.71 15.975c.573.13 1.256.26 2.05.39.795.13 1.66.183 2.598.157.755 0 1.615-.136 2.578-.41.964-.273 1.94-.833 2.93-1.68.99-.846 1.953-2.063 2.89-3.652.938-1.588 1.745-3.698 2.423-6.328h-1.915l-15.507-37.07-3.672-.9v-5.74h20.78v5.74l-4.96.978 8.32 23.125 1.446 5.937 1.678-5.937 7.032-23.28-5.664-.822v-5.74h18.554v5.74l-4.1.743c-1.85 4.974-3.478 9.323-4.884 13.047l-3.652 9.668c-1.03 2.722-1.895 5.013-2.598 6.875-.703 1.862-1.296 3.412-1.777 4.65-.483 1.236-.867 2.225-1.154 2.967-.286.743-.534 1.374-.742 1.895-1.094 2.865-2.194 5.417-3.3 7.656-1.108 2.24-2.3 4.148-3.575 5.724-1.277 1.575-2.683 2.812-4.22 3.71-1.536.9-3.268 1.427-5.195 1.583-1.094.13-2.266.17-3.516.117-.574-.052-1.14-.117-1.7-.195-.56-.08-.957-.197-1.19-.353l.038-8.594zM362.844 551.277h-9.024l1.23-6.084 9.708-4.306 1.025-5.948c.73-4.24 1.994-8.158 3.794-11.758 1.8-3.6 4.022-6.722 6.665-9.366 2.643-2.643 5.64-4.716 8.99-6.22 3.35-1.504 6.96-2.256 10.834-2.256 1.87 0 3.794.102 5.777.307 1.982.206 3.885.695 5.708 1.47l-4.17 11.826c-.41-.32-.91-.672-1.503-1.06-.592-.387-1.276-.75-2.05-1.093-.776-.342-1.653-.615-2.633-.82-.98-.205-2.062-.308-3.247-.308-1.777 0-3.258.353-4.443 1.06-1.185.706-2.176 1.766-2.974 3.178-.797 1.413-1.447 3.156-1.948 5.23-.5 2.073-.957 4.5-1.367 7.28l-1.094 8.135h15.93l-1.3 10.732h-16.064l-8.545 69.932c-.592 4.647-1.663 8.988-3.212 13.02-1.55 4.035-3.578 7.555-6.084 10.563-2.507 3.008-5.47 5.39-8.887 7.144-3.418 1.754-7.292 2.63-11.62 2.63-1.232 0-2.45-.033-3.658-.1-1.21-.07-2.348-.16-3.42-.275-1.07-.114-2.04-.25-2.905-.41-.865-.16-1.572-.307-2.12-.444l3.76-12.03 1.642.648c.866.342 1.857.684 2.973 1.025 1.117.343 2.256.64 3.418.89 1.162.25 2.154.376 2.974.376 2.233 0 4.033-1.3 5.4-3.896 1.368-2.598 2.37-6.244 3.008-10.938l9.434-78.135zm36.367 38.213c-.136-6.47.74-12.68 2.633-18.628 1.89-5.947 4.625-11.21 8.203-15.79 3.577-4.58 7.895-8.238 12.954-10.972 5.06-2.735 10.71-4.102 16.953-4.102 4.603 0 8.67.706 12.202 2.12 3.532 1.412 6.506 3.463 8.92 6.152 2.417 2.688 4.262 5.98 5.538 9.877 1.276 3.897 1.983 8.33 2.12 13.296.09 4.284-.263 8.488-1.06 12.613-.798 4.124-2.017 8.02-3.657 11.69-1.64 3.668-3.67 7.04-6.084 10.116-2.416 3.076-5.15 5.72-8.203 7.93-3.055 2.21-6.416 3.942-10.084 5.195-3.67 1.254-7.577 1.88-11.724 1.88-4.603 0-8.66-.706-12.168-2.12-3.51-1.412-6.47-3.45-8.887-6.117-2.415-2.666-4.26-5.947-5.537-9.844-1.276-3.896-1.982-8.328-2.12-13.296zm31.446 22.832c2.324 0 4.41-.604 6.255-1.81 1.847-1.21 3.476-2.838 4.89-4.89 1.412-2.05 2.608-4.442 3.588-7.177.98-2.734 1.777-5.617 2.392-8.647.616-3.03 1.037-6.13 1.265-9.297.228-3.166.32-6.23.273-9.193-.136-7.61-1.162-13.25-3.076-16.92-1.914-3.668-4.808-5.502-8.68-5.502-2.326 0-4.422.604-6.29 1.81-1.87 1.21-3.52 2.827-4.957 4.855-1.435 2.028-2.666 4.398-3.69 7.11-1.026 2.71-1.858 5.582-2.496 8.612-.64 3.03-1.095 6.107-1.368 9.23-.274 3.12-.365 6.14-.274 9.057.183 7.655 1.22 13.363 3.11 17.123 1.892 3.76 4.91 5.64 9.058 5.64zm59.54-58.584l-7.108-4.1 1.23-6.085 19.483-3.555 3.42 1.64v17.09c.728-2.05 1.742-4.17 3.04-6.357 1.3-2.186 2.883-4.203 4.752-6.05 1.868-1.844 4.022-3.36 6.46-4.545 2.438-1.185 5.16-1.777 8.17-1.777.956 0 1.856.114 2.7.342.842.228 1.446.5 1.81.82l-3.896 19.278c-.547-.456-1.504-.82-2.87-1.094-1.368-.274-2.804-.41-4.308-.41s-3.02.17-4.546.512c-1.526.342-3.02.912-4.477 1.71-1.46.797-2.883 1.856-4.273 3.178-1.39 1.322-2.7 2.94-3.93 4.854l-6.63 50.312h-17.706l8.68-65.762zm83.878-29.94l-9.023-1.71.89-7.178h37.665l-.683 7.178-9.64 1.71 8 63.368 1.982 16.2 4.443-13.876 22.354-56.67-.888-9.16-9.502-1.572.684-7.178h38.28l-1.025 7.178-9.844 1.64 6.767 63.438.615 16.2 5.264-14.9 26.865-64.6-12.168-1.778.683-7.178h34.727l-.89 7.178-9.5 1.71-42.384 96.386h-17.842l-6.972-66.788-26.25 66.788h-17.91l-14.698-96.387zm124.688 66.307c.045-4.557.57-8.966 1.572-13.227 1.003-4.26 2.404-8.25 4.204-11.963 1.8-3.714 3.976-7.098 6.528-10.15 2.553-3.055 5.39-5.675 8.51-7.863 3.123-2.187 6.495-3.885 10.118-5.092 3.623-1.208 7.417-1.812 11.382-1.812 3.6 0 6.71.433 9.33 1.3 2.622.865 4.786 2.072 6.495 3.622 1.71 1.55 2.986 3.36 3.83 5.434.843 2.074 1.287 4.32 1.333 6.734.045 3.646-.65 6.938-2.085 9.878-1.436 2.94-3.36 5.548-5.777 7.827-2.414 2.28-5.17 4.25-8.27 5.913-3.1 1.663-6.29 3.03-9.57 4.102-3.282 1.07-6.506 1.89-9.673 2.46-3.168.57-6.005.878-8.51.923-.138 2.873.033 5.618.51 8.24.48 2.62 1.266 4.943 2.36 6.97 1.094 2.03 2.54 3.636 4.34 4.82 1.8 1.186 3.977 1.778 6.53 1.778 4.42 0 8.44-.968 12.064-2.905 3.625-1.937 6.872-4.41 9.743-7.417l3.76 6.357c-.958 1.413-2.336 2.985-4.136 4.717-1.8 1.732-3.988 3.35-6.563 4.854-2.575 1.503-5.49 2.757-8.75 3.76-3.258 1.002-6.802 1.503-10.63 1.503-5.15 0-9.547-.866-13.193-2.597-3.645-1.732-6.62-4.034-8.92-6.905-2.3-2.87-3.976-6.152-5.024-9.844-1.05-3.69-1.55-7.495-1.504-11.415zm19.55-9.775c1.596-.09 3.34-.365 5.23-.82 1.89-.456 3.805-1.117 5.742-1.983 1.937-.866 3.794-1.902 5.57-3.11 1.78-1.208 3.362-2.61 4.752-4.204 1.39-1.595 2.496-3.36 3.316-5.298.82-1.937 1.208-4.045 1.162-6.323-.09-3.373-.752-5.868-1.982-7.486-1.23-1.617-2.94-2.426-5.127-2.426-2.05 0-3.908.5-5.572 1.504-1.663 1.002-3.156 2.335-4.477 4-1.322 1.662-2.473 3.587-3.452 5.775-.98 2.186-1.823 4.454-2.53 6.8-.706 2.348-1.276 4.695-1.71 7.042-.432 2.347-.74 4.523-.92 6.528zm66.65-62.275l-6.767-2.94 1.436-5.742 20.577-2.666 3.555 1.846-5.332 40.332c1.093-1.14 2.347-2.245 3.76-3.316 1.412-1.072 2.95-2.017 4.614-2.838 1.663-.82 3.463-1.48 5.4-1.982 1.937-.5 4-.752 6.187-.752 3.965 0 7.406.695 10.323 2.085 2.917 1.39 5.343 3.372 7.28 5.947 1.937 2.575 3.384 5.685 4.34 9.33.958 3.647 1.437 7.726 1.437 12.238 0 4.147-.456 8.283-1.368 12.407-.91 4.124-2.256 8.09-4.033 11.894-1.778 3.805-3.966 7.348-6.563 10.63-2.598 3.28-5.572 6.13-8.92 8.544-3.35 2.416-7.054 4.318-11.11 5.708-4.056 1.39-8.43 2.085-13.125 2.085-1.412 0-2.86-.09-4.34-.273-1.482-.183-2.95-.41-4.41-.684-1.458-.273-2.848-.592-4.17-.957-1.32-.364-2.506-.73-3.554-1.094l-8.34 3.007 13.125-102.812zm5.265 92.422c1.184.546 2.46.934 3.828 1.162 1.367.227 2.87.34 4.51.34 2.918 0 5.55-.603 7.897-1.81 2.347-1.21 4.42-2.838 6.22-4.89 1.8-2.05 3.362-4.453 4.683-7.21 1.322-2.758 2.404-5.686 3.247-8.785.843-3.1 1.47-6.29 1.88-9.57.41-3.28.615-6.494.615-9.64 0-2.824-.227-5.422-.683-7.792-.456-2.37-1.14-4.398-2.05-6.084-.912-1.687-2.03-2.997-3.35-3.93-1.322-.936-2.85-1.403-4.58-1.403-1.596 0-3.145.274-4.65.82-1.503.547-2.916 1.277-4.237 2.188-1.322.91-2.552 1.937-3.692 3.076-1.14 1.14-2.142 2.303-3.008 3.488l-6.63 50.04zm89.96 2.46l10.46-2.05 11.28-87.09-9.435-1.71.752-7.177h20.986c3.418-.045 6.905-.24 10.46-.58 3.554-.343 7.154-.514 10.8-.514 7.61 0 14.07 1.06 19.38 3.18 5.31 2.118 9.64 5.08 12.988 8.886 3.35 3.805 5.788 8.317 7.315 13.535 1.527 5.218 2.313 10.903 2.358 17.056.092 9.25-1.07 17.807-3.485 25.67-2.415 7.86-6.038 14.662-10.87 20.404-4.83 5.742-10.834 10.208-18.012 13.398-7.178 3.19-15.483 4.74-24.917 4.65-.82 0-1.88-.058-3.18-.172-1.297-.114-2.38-.217-3.246-.308-.82-.045-1.834-.114-3.042-.205-1.207-.09-2.472-.16-3.794-.205-1.32-.045-2.63-.09-3.93-.137-1.3-.045-2.45-.068-3.452-.068h-20.166l.752-6.562zm29.327-2.597c.82.273 1.81.524 2.973.752 1.162.228 2.347.433 3.555.615 1.208.182 2.393.32 3.555.41 1.162.09 2.2.137 3.11.137 4.284-.137 8.135-1.014 11.553-2.632 3.418-1.618 6.426-3.748 9.023-6.392 2.598-2.643 4.82-5.708 6.665-9.194 1.846-3.486 3.35-7.212 4.512-11.177 1.162-3.965 2.005-8.044 2.53-12.237.523-4.193.763-8.317.717-12.373-.046-6.517-.57-12.065-1.572-16.646-1.003-4.58-2.53-8.317-4.58-11.21-2.05-2.894-4.66-5.002-7.827-6.324-3.168-1.32-6.962-1.982-11.382-1.982-1.14 0-2.302.045-3.487.137-1.186.09-2.302.216-3.35.376s-2.005.33-2.87.513c-.867.183-1.55.365-2.052.547l-11.074 86.68zm76.152-20.235c.046-4.557.57-8.966 1.572-13.227 1.003-4.26 2.404-8.25 4.204-11.963 1.8-3.714 3.977-7.098 6.53-10.15 2.55-3.055 5.388-5.675 8.51-7.863 3.12-2.187 6.494-3.885 10.117-5.092 3.622-1.208 7.416-1.812 11.38-1.812 3.6 0 6.71.433 9.332 1.3 2.62.865 4.785 2.072 6.494 3.622 1.71 1.55 2.985 3.36 3.828 5.434.843 2.074 1.287 4.32 1.333 6.734.045 3.646-.65 6.938-2.085 9.878-1.436 2.94-3.36 5.548-5.777 7.827-2.415 2.28-5.172 4.25-8.27 5.913-3.1 1.663-6.29 3.03-9.57 4.102-3.283 1.07-6.507 1.89-9.674 2.46-3.167.57-6.003.878-8.51.923-.137 2.873.034 5.618.513 8.24.478 2.62 1.264 4.943 2.358 6.97 1.095 2.03 2.542 3.636 4.342 4.82 1.8 1.186 3.976 1.778 6.528 1.778 4.42 0 8.443-.968 12.066-2.905 3.623-1.937 6.87-4.41 9.74-7.417l3.76 6.357c-.956 1.413-2.335 2.985-4.135 4.717-1.8 1.732-3.987 3.35-6.562 4.854-2.574 1.503-5.49 2.757-8.75 3.76-3.258 1.002-6.8 1.503-10.63 1.503-5.15 0-9.547-.866-13.193-2.597-3.646-1.732-6.62-4.034-8.92-6.905-2.302-2.87-3.977-6.152-5.025-9.844-1.048-3.69-1.55-7.495-1.504-11.415zm19.55-9.775c1.596-.09 3.34-.365 5.23-.82 1.892-.456 3.806-1.117 5.742-1.983 1.937-.866 3.794-1.902 5.572-3.11 1.777-1.208 3.36-2.61 4.75-4.204 1.39-1.595 2.496-3.36 3.316-5.298.82-1.937 1.208-4.045 1.162-6.323-.09-3.373-.752-5.868-1.982-7.486-1.23-1.617-2.94-2.426-5.127-2.426-2.052 0-3.91.5-5.572 1.504-1.664 1.002-3.156 2.335-4.478 4-1.322 1.662-2.472 3.587-3.452 5.775-.98 2.186-1.823 4.454-2.53 6.8-.706 2.348-1.275 4.695-1.708 7.042-.433 2.347-.74 4.523-.923 6.528zm51.75 24.13c.728.593 1.72 1.266 2.972 2.018 1.254.75 2.666 1.458 4.24 2.12 1.57.66 3.303 1.218 5.194 1.673 1.89.457 3.862.685 5.913.685 1.322 0 2.7-.114 4.136-.342 1.436-.228 2.747-.672 3.932-1.333 1.184-.66 2.164-1.583 2.94-2.768.774-1.185 1.16-2.735 1.16-4.65 0-1.64-.318-3.143-.956-4.51-.638-1.368-1.504-2.678-2.598-3.93-1.093-1.254-2.38-2.462-3.862-3.624-1.48-1.162-3.065-2.36-4.75-3.59-1.368-1.002-2.86-2.243-4.478-3.725-1.618-1.48-3.122-3.2-4.512-5.16-1.39-1.96-2.54-4.17-3.452-6.632-.912-2.46-1.367-5.17-1.367-8.133 0-3.646.774-6.87 2.324-9.673 1.55-2.803 3.647-5.16 6.29-7.075 2.643-1.915 5.73-3.362 9.263-4.342 3.53-.98 7.28-1.47 11.245-1.47 1.823 0 3.668.08 5.537.24 1.868.16 3.6.364 5.195.615 1.595.25 3.008.524 4.238.82 1.23.296 2.12.58 2.666.854l-2.734 12.784c-.32-.41-.9-.956-1.743-1.64-.843-.684-1.89-1.344-3.145-1.982-1.253-.64-2.71-1.197-4.375-1.675-1.663-.48-3.497-.718-5.503-.718-1.458 0-2.86.148-4.204.444-1.344.295-2.563.785-3.657 1.47-1.094.683-1.994 1.57-2.7 2.665-.707 1.094-1.128 2.438-1.265 4.033-.09 1.595.114 3.1.615 4.512.502 1.413 1.265 2.78 2.29 4.1 1.026 1.323 2.28 2.633 3.76 3.932 1.48 1.3 3.11 2.61 4.888 3.93 1.778 1.368 3.544 2.838 5.3 4.41 1.753 1.572 3.314 3.327 4.68 5.264 1.37 1.937 2.474 4.078 3.317 6.425.843 2.348 1.264 4.957 1.264 7.83 0 3.918-.83 7.29-2.494 10.116-1.663 2.825-3.885 5.16-6.665 7.007-2.78 1.845-5.97 3.213-9.57 4.1-3.6.89-7.313 1.334-11.142 1.334-2.14 0-4.318-.137-6.528-.41-2.21-.273-4.295-.615-6.255-1.025-1.96-.41-3.668-.878-5.127-1.402-1.458-.524-2.506-1.037-3.144-1.538l2.87-12.03zm64.804 6.77c.32-2.736.75-6.097 1.298-10.084.547-3.988 1.174-8.5 1.88-13.536.707-5.035 1.48-10.504 2.324-16.406.844-5.902 1.72-12.134 2.632-18.696l-10.664-3.487 1.23-5.536 25.567-3.486 3.555 1.64-9.16 63.712c-.502 3.463.16 5.195 1.982 5.195.775 0 1.663-.274 2.666-.82 1.003-.547 2.37-1.573 4.102-3.077l2.05 4.307c-.364.5-1.06 1.3-2.085 2.393-1.025 1.093-2.324 2.2-3.896 3.315-1.57 1.117-3.417 2.096-5.536 2.94-2.12.843-4.432 1.264-6.94 1.264-3.827 0-6.71-.82-8.646-2.46-1.937-1.64-2.723-4.034-2.358-7.178zm20.44-84.904c-1.323 0-2.564-.273-3.727-.82-1.162-.547-2.176-1.276-3.042-2.188-.864-.91-1.548-1.96-2.05-3.144-.5-1.185-.73-2.416-.683-3.692.046-1.595.387-3.087 1.025-4.477.638-1.39 1.482-2.61 2.53-3.657 1.048-1.05 2.267-1.88 3.657-2.495 1.39-.616 2.88-.923 4.476-.923 1.55 0 2.963.262 4.24.786 1.275.524 2.346 1.23 3.212 2.12.866.888 1.515 1.89 1.948 3.007.433 1.116.627 2.29.58 3.52-.045 1.595-.352 3.122-.922 4.58-.57 1.46-1.378 2.735-2.427 3.828-1.048 1.095-2.312 1.96-3.794 2.6-1.48.637-3.156.956-5.024.956zm26.044 111.836c.638.41 1.606.912 2.905 1.504 1.298.592 2.79 1.162 4.477 1.71 1.686.546 3.486 1.024 5.4 1.435 1.914.41 3.805.616 5.674.616 2.6 0 4.81-.17 6.632-.513 1.823-.342 3.35-1.014 4.58-2.017 1.23-1.002 2.21-2.426 2.94-4.272.728-1.846 1.298-4.25 1.708-7.212l2.325-16.61c-1.14 1.093-2.393 2.118-3.76 3.075-1.367.957-2.87 1.81-4.512 2.563-1.64.752-3.384 1.345-5.23 1.778-1.845.433-3.816.65-5.913.65-4.056 0-7.553-.753-10.493-2.257-2.94-1.503-5.355-3.565-7.246-6.185-1.89-2.62-3.29-5.708-4.203-9.263-.91-3.555-1.367-7.383-1.367-11.484 0-3.965.444-7.998 1.333-12.1.89-4.1 2.2-8.066 3.93-11.894 1.732-3.83 3.886-7.417 6.46-10.767 2.575-3.35 5.55-6.278 8.92-8.784 3.374-2.507 7.145-4.49 11.315-5.947 4.17-1.46 8.716-2.188 13.638-2.188 2.87 0 5.73.32 8.58.957 2.847.638 5.274 1.322 7.28 2.05l9.638-3.007-12.305 84.766c-.548 3.782-1.528 7.155-2.94 10.117-1.413 2.963-3.134 5.55-5.162 7.76s-4.306 4.078-6.836 5.605c-2.53 1.527-5.172 2.757-7.93 3.692-2.756.934-5.56 1.606-8.407 2.016-2.85.41-5.594.615-8.238.615-1.595 0-3.224-.08-4.887-.24-1.664-.158-3.247-.375-4.75-.648-1.505-.274-2.872-.57-4.103-.89-1.23-.318-2.187-.637-2.87-.956l3.417-13.672zm23.174-28.096c1.504 0 2.962-.25 4.375-.752 1.413-.5 2.757-1.15 4.033-1.948 1.276-.797 2.472-1.72 3.59-2.768 1.115-1.05 2.13-2.12 3.04-3.213l7.452-50.928c-1.185-.547-2.46-.934-3.828-1.162-1.367-.228-2.78-.342-4.238-.342-3.008 0-5.708.627-8.1 1.88-2.394 1.253-4.513 2.95-6.358 5.093-1.846 2.142-3.43 4.614-4.75 7.417-1.323 2.803-2.405 5.753-3.248 8.852-.844 3.1-1.46 6.244-1.846 9.434-.388 3.19-.58 6.242-.58 9.16 0 6.197.933 10.96 2.8 14.286 1.87 3.327 4.422 4.99 7.658 4.99zm63.095-56.396l-6.972-4.033 1.163-6.084 21.055-3.555 3.418 1.64-1.23 14.22c1.685-2.28 3.53-4.387 5.536-6.324 2.005-1.937 4.147-3.61 6.426-5.024 2.28-1.413 4.66-2.518 7.144-3.316 2.483-.797 5.024-1.196 7.622-1.196 2.506 0 4.785.353 6.836 1.06 2.05.706 3.816 1.868 5.297 3.486 1.482 1.618 2.632 3.748 3.453 6.392.82 2.643 1.23 5.878 1.23 9.707 0 1.367-.114 3.042-.342 5.024-.228 1.982-.512 4.09-.854 6.323-.342 2.233-.718 4.478-1.128 6.734-.41 2.256-.775 4.34-1.094 6.255-.32 1.73-.638 3.52-.957 5.365-.32 1.845-.627 3.68-.923 5.503-.296 1.823-.547 3.61-.752 5.366-.205 1.754-.33 3.384-.376 4.888-.045 1.64.126 2.79.513 3.452.387.66.9.99 1.538.99.684 0 1.47-.204 2.358-.614.89-.41 2.13-1.254 3.726-2.53l1.98 4.307c-.318.456-.967 1.196-1.947 2.222-.98 1.024-2.233 2.05-3.76 3.075-1.526 1.025-3.326 1.937-5.4 2.734-2.074.797-4.34 1.196-6.802 1.196-2.232 0-4.078-.262-5.536-.787-1.458-.525-2.61-1.254-3.452-2.188-.843-.934-1.424-2.028-1.743-3.28-.32-1.255-.457-2.633-.41-4.137.044-1.276.17-2.746.375-4.41.205-1.663.455-3.43.752-5.297.296-1.87.626-3.794.99-5.776.365-1.983.73-3.93 1.095-5.845.32-1.914.695-4.01 1.127-6.29.432-2.278.82-4.602 1.162-6.972.34-2.37.626-4.74.854-7.11.228-2.37.342-4.58.342-6.63 0-2.188-.148-3.93-.444-5.23-.297-1.298-.73-2.312-1.3-3.042-.57-.73-1.264-1.207-2.084-1.435-.82-.228-1.755-.342-2.803-.342-1.504 0-3.133.422-4.888 1.265-1.755.844-3.51 2.006-5.264 3.487-1.755 1.48-3.475 3.224-5.16 5.23-1.688 2.005-3.214 4.147-4.582 6.425l-6.972 50.928h-17.705l8.886-65.83zm76.29 36.435c.045-4.557.57-8.966 1.572-13.227 1.002-4.26 2.404-8.25 4.204-11.963 1.8-3.714 3.975-7.098 6.527-10.15 2.552-3.055 5.39-5.675 8.51-7.863 3.123-2.187 6.495-3.885 10.118-5.092 3.623-1.208 7.417-1.812 11.382-1.812 3.6 0 6.71.433 9.33 1.3 2.62.865 4.786 2.072 6.495 3.622 1.71 1.55 2.985 3.36 3.828 5.434.843 2.074 1.288 4.32 1.333 6.734.046 3.646-.65 6.938-2.085 9.878-1.435 2.94-3.36 5.548-5.776 7.827-2.415 2.28-5.173 4.25-8.272 5.913-3.1 1.663-6.29 3.03-9.57 4.102-3.28 1.07-6.505 1.89-9.673 2.46-3.167.57-6.004.878-8.51.923-.137 2.873.034 5.618.512 8.24.478 2.62 1.264 4.943 2.358 6.97 1.093 2.03 2.54 3.636 4.34 4.82 1.8 1.186 3.977 1.778 6.53 1.778 4.42 0 8.44-.968 12.064-2.905 3.623-1.937 6.87-4.41 9.74-7.417l3.76 6.357c-.956 1.413-2.334 2.985-4.135 4.717-1.8 1.732-3.987 3.35-6.562 4.854-2.575 1.503-5.492 2.757-8.75 3.76-3.26 1.002-6.802 1.503-10.63 1.503-5.15 0-9.547-.866-13.193-2.597-3.646-1.732-6.62-4.034-8.92-6.905-2.303-2.87-3.977-6.152-5.026-9.844-1.048-3.69-1.55-7.495-1.504-11.415zm19.55-9.775c1.595-.09 3.338-.365 5.23-.82 1.89-.456 3.805-1.117 5.742-1.983 1.937-.866 3.794-1.902 5.57-3.11 1.78-1.208 3.362-2.61 4.752-4.204 1.39-1.595 2.495-3.36 3.316-5.298.82-1.937 1.207-4.045 1.162-6.323-.09-3.373-.752-5.868-1.983-7.486-1.23-1.617-2.94-2.426-5.127-2.426-2.05 0-3.907.5-5.57 1.504-1.664 1.002-3.157 2.335-4.478 4-1.322 1.662-2.473 3.587-3.453 5.775-.98 2.186-1.822 4.454-2.53 6.8-.705 2.348-1.275 4.695-1.708 7.042-.433 2.347-.74 4.523-.923 6.528zm63.233-26.592l-7.11-4.1 1.23-6.085 19.483-3.555 3.417 1.64v17.09c.73-2.05 1.743-4.17 3.042-6.357 1.298-2.186 2.882-4.203 4.75-6.05 1.87-1.844 4.022-3.36 6.46-4.545 2.438-1.185 5.16-1.777 8.17-1.777.956 0 1.856.114 2.7.342.842.228 1.446.5 1.81.82l-3.896 19.278c-.547-.456-1.504-.82-2.87-1.094-1.368-.274-2.804-.41-4.307-.41-1.504 0-3.02.17-4.546.512-1.526.342-3.02.912-4.477 1.71-1.458.797-2.882 1.856-4.272 3.178-1.39 1.322-2.7 2.94-3.93 4.854l-6.63 50.312h-17.706l8.682-65.762zm45.937 50.723c.73.593 1.72 1.266 2.974 2.018 1.253.75 2.666 1.458 4.238 2.12 1.572.66 3.304 1.218 5.195 1.673 1.892.457 3.863.685 5.914.685 1.32 0 2.7-.114 4.135-.342 1.435-.228 2.745-.672 3.93-1.333 1.185-.66 2.165-1.583 2.94-2.768.774-1.185 1.16-2.735 1.16-4.65 0-1.64-.318-3.143-.956-4.51-.638-1.368-1.503-2.678-2.597-3.93-1.094-1.254-2.38-2.462-3.863-3.624-1.48-1.162-3.064-2.36-4.75-3.59-1.368-1.002-2.86-2.243-4.478-3.725-1.618-1.48-3.122-3.2-4.512-5.16-1.39-1.96-2.54-4.17-3.452-6.632-.91-2.46-1.367-5.17-1.367-8.133 0-3.646.775-6.87 2.324-9.673 1.55-2.803 3.645-5.16 6.288-7.075 2.643-1.915 5.73-3.362 9.263-4.342 3.533-.98 7.28-1.47 11.246-1.47 1.823 0 3.67.08 5.537.24 1.87.16 3.6.364 5.195.615 1.596.25 3.008.524 4.24.82 1.23.296 2.118.58 2.665.854l-2.735 12.784c-.32-.41-.9-.956-1.743-1.64-.843-.684-1.89-1.344-3.144-1.982-1.253-.64-2.71-1.197-4.374-1.675-1.664-.48-3.498-.718-5.503-.718-1.46 0-2.86.148-4.204.444-1.346.295-2.565.785-3.66 1.47-1.092.683-1.992 1.57-2.7 2.665-.705 1.094-1.127 2.438-1.263 4.033-.092 1.595.113 3.1.615 4.512.5 1.413 1.264 2.78 2.29 4.1 1.025 1.323 2.278 2.633 3.76 3.932 1.48 1.3 3.11 2.61 4.887 3.93 1.777 1.368 3.543 2.838 5.297 4.41 1.755 1.572 3.316 3.327 4.683 5.264 1.367 1.937 2.472 4.078 3.315 6.425.843 2.348 1.265 4.957 1.265 7.83 0 3.918-.832 7.29-2.495 10.116-1.664 2.825-3.885 5.16-6.665 7.007-2.78 1.845-5.97 3.213-9.57 4.1-3.6.89-7.315 1.334-11.143 1.334-2.142 0-4.318-.137-6.53-.41-2.21-.273-4.294-.615-6.253-1.025-1.96-.41-3.67-.878-5.127-1.402-1.46-.524-2.507-1.037-3.145-1.538l2.87-12.03z" fill="#0A90B5"/><path d="M210.41 384.475h16.348l-7.998-58.71-8.35 58.71zM170.332 438l34.19-158.203h28.3L266.924 438H235.37l-6.503-33.838h-20.654L202.06 438h-31.728zm106.293-58.8v-99.403h31.992v98.437c0 5.625.03 9.712.088 12.26.06 2.55.205 5.655.44 9.318.234 3.662.644 6.225 1.23 7.69.586 1.465 1.392 3.047 2.417 4.746 1.025 1.7 2.358 2.813 4 3.34 1.64.527 3.632.79 5.976.79 2.343 0 4.336-.263 5.976-.79 1.64-.527 2.974-1.626 4-3.296 1.025-1.67 1.83-3.237 2.416-4.702.586-1.465.996-4 1.23-7.603.235-3.603.38-6.65.44-9.14s.088-6.52.088-12.085v-98.965h31.992V379.2c0 5.04-.146 9.61-.44 13.712-.292 4.102-.85 8.35-1.67 12.744-.82 4.395-1.933 8.277-3.34 11.646-1.405 3.37-3.28 6.592-5.624 9.668-2.344 3.076-5.112 5.61-8.306 7.602-3.193 1.992-7.046 3.574-11.557 4.746-4.512 1.172-9.58 1.758-15.205 1.758s-10.694-.586-15.206-1.758c-4.51-1.172-8.35-2.754-11.513-4.746-3.165-1.992-5.92-4.526-8.263-7.602-2.344-3.076-4.22-6.3-5.625-9.668-1.406-3.37-2.534-7.25-3.384-11.646-.85-4.394-1.42-8.642-1.714-12.744-.293-4.1-.44-8.672-.44-13.71zm126.42 58.8V303.703h-23.203v-23.906h77.96v23.906h-22.765V438h-31.992zm62.787-52.03v-53.175c0-37.383 15.41-56.074 46.23-56.074 30.88 0 46.32 18.692 46.32 56.075v52.383c0 6.328-.47 12.173-1.407 17.534-.938 5.36-2.535 10.444-4.79 15.25-2.256 4.804-5.127 8.89-8.614 12.26-3.485 3.37-7.894 6.02-13.226 7.954-5.332 1.933-11.426 2.9-18.282 2.9-6.796 0-12.86-.952-18.193-2.856-5.333-1.905-9.727-4.483-13.184-7.735-3.458-3.252-6.314-7.236-8.57-11.953-2.256-4.717-3.867-9.74-4.834-15.073-.967-5.333-1.45-11.163-1.45-17.49zm60.557 7.206v-68.38c0-15.585-4.777-23.378-14.327-23.378-2.872 0-5.303.718-7.295 2.153-1.993 1.437-3.457 3.4-4.395 5.89-.937 2.49-1.597 4.95-1.977 7.383-.38 2.43-.572 5.083-.572 7.954v68.38c0 15.526 4.746 23.29 14.238 23.29 9.55 0 14.327-7.764 14.327-23.29zM576.167 438V279.797h38.32l16.875 105.47 18.194-105.47h37.002V438h-23.556l-.703-111.27c-1.757 11.426-4.833 29.97-9.228 55.635-4.394 25.664-7.47 44.21-9.228 55.635h-23.906l-19.424-111.973L599.81 438H576.17zm161.664-53.525h16.348l-7.998-58.71-8.35 58.71zM697.754 438l34.19-158.203h28.3L794.346 438h-31.553l-6.504-33.838h-20.655L729.482 438h-31.728zm118.422 0V303.703h-23.203v-23.906h77.96v23.906h-22.765V438h-31.992zm66.39 0V279.797h66.006v21.973H914.56v43.066h24.08v22.5h-24.08v48.69h34.012V438h-66.006zm78.432 0V279.797h33.047c10.547 0 19.233.952 26.06 2.856 6.826 1.905 12.187 5.04 16.083 9.405 3.897 4.365 6.592 9.594 8.086 15.688 1.495 6.094 2.242 13.857 2.242 23.29v51.857c0 5.625-.176 10.532-.528 14.72-.35 4.19-1.01 8.292-1.977 12.306-.966 4.013-2.284 7.41-3.954 10.194-1.67 2.783-3.824 5.376-6.46 7.78-2.637 2.4-5.816 4.305-9.536 5.71-3.72 1.408-8.086 2.492-13.096 3.253-5.01.762-10.767 1.143-17.27 1.143h-32.696zm33.223-22.412c3.048 0 5.45-.044 7.208-.132 1.758-.088 3.515-.308 5.273-.66 1.76-.35 3.048-.834 3.868-1.45.82-.615 1.582-1.508 2.286-2.68.703-1.172 1.157-2.563 1.362-4.175.205-1.61.307-3.617.307-6.02v-85.165c0-5.215-1.552-8.672-4.658-10.37-3.105-1.7-8.32-2.58-15.644-2.638v113.29zM1116.368 438V303.703h-23.203v-23.906h77.96v23.906h-22.765V438h-31.993zm66.39 0V279.797h66.007v21.973h-34.014v43.066h24.082v22.5h-24.082v48.69h34.014V438h-66.006zm72.983-45.264l32.432-6.24c0 3.223.058 6.065.176 8.525.117 2.462.424 5.143.923 8.043.5 2.9 1.172 5.274 2.022 7.12.85 1.845 2.05 3.398 3.604 4.658 1.552 1.26 3.383 1.89 5.493 1.89 6.327 0 9.49-4.042 9.49-12.128 0-11.075-6.24-22.09-18.72-33.047l-9.93-8.438c-3.166-2.637-5.685-4.834-7.56-6.592-1.875-1.757-4.087-4.13-6.636-7.12-2.55-2.987-4.54-5.873-5.976-8.656-1.436-2.784-2.666-6.14-3.692-10.064-1.025-3.926-1.538-8.086-1.538-12.48 0-12.833 4.072-22.984 12.217-30.455 8.144-7.47 18.955-11.205 32.432-11.205 11.19 0 20.712 3.984 28.564 11.953 7.853 7.97 11.778 17.578 11.778 28.828l-.088 1.143v2.635l-33.046 4.57c0-.644.044-1.654.13-3.03.09-1.378.133-2.506.133-3.385 0-2.11-.146-4.13-.44-6.065-.292-1.933-.776-3.867-1.45-5.8-.673-1.934-1.713-3.472-3.12-4.615-1.406-1.142-3.105-1.714-5.097-1.714-3.516 0-6.152 1.377-7.91 4.13-1.758 2.755-2.637 6.007-2.637 9.757 0 3.28.513 6.358 1.538 9.23 1.026 2.87 2.58 5.55 4.66 8.04 2.08 2.49 3.998 4.556 5.756 6.197 1.758 1.64 4.102 3.647 7.03 6.02 2.93 2.373 5.01 4.117 6.242 5.23 4.51 3.984 8.32 7.72 11.425 11.206 3.106 3.486 6.036 7.427 8.79 11.82 2.753 4.396 4.82 9.142 6.196 14.24 1.376 5.097 2.064 10.605 2.064 16.523 0 11.073-3.955 20.14-11.865 27.2-7.91 7.062-17.52 10.592-28.83 10.592-7.323 0-13.827-1.348-19.51-4.043-5.685-2.696-10.27-6.358-13.756-10.987-3.486-4.63-6.167-9.756-8.042-15.38-1.875-5.626-2.96-11.66-3.252-18.107zM1369.768 438V303.703h-23.204v-23.906h77.96v23.906h-22.764V438h-31.992zm66.39 0V279.797h31.992V438h-31.992zm51.8 0V279.71h23.028l34.717 82.792V279.71h26.543V438h-22.148l-34.63-87.803V438h-27.51zm102.075-49.482v-55.723c0-37.383 15.557-56.074 46.67-56.074 6.563 0 12.407.865 17.534 2.593 5.127 1.73 9.42 4.117 12.876 7.164 3.457 3.046 6.3 6.796 8.526 11.25 2.225 4.453 3.837 9.287 4.833 14.502.996 5.213 1.494 10.956 1.494 17.225v9.316h-30.586v-11.073c0-2.754-.072-5.17-.22-7.25-.145-2.08-.512-4.395-1.097-6.944-.586-2.55-1.377-4.644-2.374-6.284-.997-1.642-2.432-3.02-4.307-4.132-1.875-1.113-4.102-1.67-6.68-1.67-9.785 0-14.678 7.793-14.678 23.38v68.29c0 15.527 4.893 23.29 14.678 23.29 9.727 0 14.59-8.056 14.59-24.17v-12.655h-18.105v-22.94h50.097V438h-21.972l-4.043-11.074c-2.696 4.22-6.534 7.632-11.514 10.24-4.98 2.606-10.108 3.91-15.38 3.91-5.685 0-10.855-1.04-15.514-3.12-4.658-2.08-8.496-4.834-11.513-8.262-3.02-3.427-5.553-7.456-7.604-12.085-2.05-4.63-3.516-9.36-4.394-14.195-.88-4.834-1.32-9.8-1.32-14.897z" fill="#0B4E61"/><path fill="#0A90B5" d="M0 50h1800v71H0z"/><g stroke-width="2" transform="translate(-1684 -603)"><use stroke-opacity=".475" stroke="#FFF" xlink:href="#d"/><use stroke-opacity=".276" stroke="#000" xlink:href="#d"/></g></g></g></g></svg>