<svg width="280" height="366" viewBox="0 0 280 366" xmlns="http://www.w3.org/2000/svg" xmlns:xlink="http://www.w3.org/1999/xlink"><title>Book 3D</title><defs><path id="a" d="M0 7.593h273.023V366H0z"/><linearGradient x1="50%" y1="0%" x2="50%" y2="100%" id="c"><stop stop-color="#81D6EC" stop-opacity=".652" offset="0%"/><stop stop-color="#1CB0D6" offset="100%"/></linearGradient><path id="d" d="M249.512 94.765h15.168v366.152h-15.168z"/></defs><g fill="none" fill-rule="evenodd"><path fill="#0A90B5" d="M7.584.152H280V358.56H7.584z"/><path fill="#FFF" d="M5.157 2.43h272.416v358.407H5.157z"/><path fill="#F9F9F9" d="M4.55 3.07h272.416v358.406H4.55z"/><path fill="#F9F9F9" d="M4.55 3.07h272.416v358.406H4.55z"/><path fill="#FFF" d="M3.944 3.683H276.36V362.09H3.944z"/><path fill="#F9F9F9" d="M3.337 4.297h272.416v358.407H3.337z"/><path fill="#FFF" d="M2.73 4.91h272.416v358.407H2.73z"/><path fill="#F9F9F9" d="M2.124 5.524H274.54V363.93H2.124z"/><path fill="#FFF" d="M1.517 6.138h272.416v358.407H1.517z"/><path fill="#F9F9F9" d="M.91 6.682h272.416V365.09H.91z"/><path d="M7.623.058v2.325L2.45 7.68H.04L7.623.058z" fill="#0A90B5"/><mask id="b" fill="#fff"><use xlink:href="#a"/></mask><use fill-opacity=".5" fill="#D8D8D8" xlink:href="#a"/><g mask="url(#b)"><path fill="url(#c)" d="M232.828 72.593h336.88v420.065h-336.88z" transform="translate(-255.428 -91.576)"/><path d="M442.23 368.576c3.604-5.998 6.78-12.22 9.717-18.617 1.88-4.056.38-9.255-3.917-11.837l-22.87-13.74c-3.222-1.938-4.994-6.72-3.926-10.596 2.576-9.49 4.36-19.076 4.588-28.437.113-4.552 2.72-8.04 7.03-9.25l26.34-7.132c4.763-1.297 7.617-5.577 7.04-10.493-1.545-13.456-5.063-26.808-9.576-39.942-1.59-4.652-6.783-6.972-11.134-5.94l-26.37 6.363c-3.957.96-8.04-1.023-10.206-4.634-4.758-7.942-10.357-15.62-17-22.692-3.167-3.29-3.604-7.46-1.315-11.272l14.103-23.468c2.63-4.376 1.85-9.252-2.176-12.287-5.505-4.18-11.095-8.164-16.985-11.704-5.89-3.54-12.01-6.643-18.308-9.504-4.028-1.855-9.24-.528-11.87 3.848l-14.1 23.47c-1.973 3.28-6.564 5.253-10.39 4.237-9.408-2.468-18.738-4.274-28.017-4.355-4.513-.042-7.968-2.64-9.063-6.943l-6.76-26.272c-1.21-4.783-5.433-7.555-10.294-6.934-13.37 1.774-26.69 5.573-39.763 10.296-4.64 1.68-6.972 6.786-5.96 11.143l5.89 26.497c.854 3.952-1.274 8.346-4.867 10.55-7.952 4.926-15.873 10.566-22.955 17.4-3.312 3.248-7.276 3.864-11.018 1.616l-23.05-13.85c-4.296-2.582-9.214-2.01-12.288 2.1-4.235 5.62-8.274 11.32-11.878 17.318-3.604 5.998-6.89 12.402-9.826 18.8-1.905 4.094-.38 9.255 3.916 11.837l23.05 13.85c3.222 1.936 4.815 6.61 3.746 10.486-2.6 9.527-4.358 19.075-4.587 28.435-.113 4.553-2.634 7.896-6.92 9.07l-26.16 7.238c-4.763 1.297-7.69 5.783-7.15 10.676 1.545 13.455 5.1 26.83 9.576 39.94 1.59 4.653 6.64 6.887 10.954 5.834l26.372-6.364c3.895-.945 8.218 1.13 10.384 4.742 4.758 7.942 10.335 15.658 17 22.692 3.144 3.327 3.425 7.353 1.135 11.163l-14.1 23.47c-2.607 4.337-1.85 9.25 2.175 12.286 5.505 4.18 11.095 8.164 16.986 11.703 5.89 3.54 12.01 6.643 18.308 9.503 4.028 1.855 9.264.49 11.87-3.848l14.102-23.47c1.972-3.28 6.742-5.145 10.57-4.13 9.406 2.47 18.737 4.276 28.016 4.357 4.513.04 7.787 2.53 8.882 6.834l6.76 26.272c1.234 4.745 5.59 7.7 10.475 7.042 13.37-1.774 26.666-5.535 39.762-10.297 4.64-1.678 7.06-6.93 6.07-11.324l-6.07-26.606c-.876-3.914 1.14-8.124 4.758-10.367 7.952-4.925 15.873-10.566 22.954-17.4 3.313-3.247 7.457-3.755 11.2-1.507l22.867 13.74c4.298 2.583 9.216 2.01 12.29-2.097 4.233-5.62 8.383-11.506 11.987-17.504zm-72.416-44.26c-24.57 40.89-77.385 54.567-117.545 30.437s-52.7-77.076-28.13-117.968c24.57-40.892 77.095-54.493 117.255-30.362 40.16 24.13 52.99 77 28.42 117.892zm-245.055 57.88c3.602-5.997 6.8-12.255 9.715-18.616 1.904-4.093.343-9.276-3.917-11.836l-23.05-13.85c-3.222-1.936-4.814-6.61-3.746-10.486 2.6-9.528 4.38-19.113 4.588-28.436.136-4.59 2.61-7.858 6.92-9.07l26.27-7.42c4.726-1.32 7.617-5.578 7.04-10.494-1.568-13.418-5.063-26.808-9.576-39.942-1.613-4.615-6.603-6.864-10.954-5.833l-26.37 6.364c-3.897.945-8.242-1.093-10.386-4.742-4.758-7.942-10.335-15.658-17-22.692-3.144-3.327-3.447-7.315-1.135-11.163l14.1-23.47c2.63-4.375 1.85-9.25-2.175-12.286-5.505-4.18-11.095-8.164-16.985-11.703-5.89-3.54-12.032-6.604-18.308-9.502-3.99-1.834-9.24-.528-11.87 3.847l-14.1 23.47c-1.973 3.28-6.744 5.145-10.57 4.13-9.348-2.485-18.76-4.238-28.017-4.357-4.536-.004-7.75-2.51-8.883-6.835L-30.408 131c-1.21-4.782-5.613-7.662-10.475-7.04-13.368 1.773-26.688 5.572-39.762 10.296-4.64 1.68-6.935 6.807-5.96 11.142l5.96 26.79c.89 3.973-1.14 8.123-4.757 10.366-7.93 4.888-15.813 10.55-22.955 17.4-3.29 3.21-7.456 3.755-11.198 1.507l-22.87-13.74c-4.296-2.582-9.214-2.01-12.288 2.098-4.21 5.582-8.273 11.322-11.877 17.32-3.604 5.998-6.912 12.44-9.826 18.8-1.905 4.093-.38 9.254 3.917 11.836l22.87 13.74c3.222 1.938 4.995 6.72 3.926 10.596-2.6 9.528-4.38 19.114-4.587 28.437-.115 4.552-2.636 7.895-6.92 9.068l-26.452 7.314c-4.786 1.334-7.58 5.6-7.04 10.492 1.568 13.42 5.078 26.868 9.576 39.942 1.59 4.652 6.82 6.995 11.134 5.94l26.372-6.363c3.932-.922 8.075 1.046 10.204 4.635 4.736 7.98 10.335 15.658 17 22.692 3.144 3.327 3.605 7.46 1.315 11.272l-14.102 23.467c-2.63 4.376-1.828 9.215 2.175 12.287 5.528 4.143 11.095 8.164 16.986 11.704 5.89 3.54 12.03 6.604 18.306 9.503 4.05 1.818 9.24.53 11.87-3.847l14.102-23.47c1.95-3.243 6.562-5.253 10.39-4.237 9.406 2.47 18.736 4.275 28.016 4.356 4.513.042 7.967 2.64 9.062 6.943l6.76 26.272c1.234 4.746 5.41 7.593 10.295 6.934 13.347-1.735 26.69-5.572 39.763-10.295 4.662-1.717 6.913-6.77 5.96-11.143l-5.78-26.68c-.876-3.915 1.14-8.125 4.758-10.367 7.99-4.904 15.85-10.53 22.955-17.4 3.327-3.188 7.277-3.864 11.02-1.616l23.047 13.848c4.26 2.56 9.216 2.01 12.29-2.098 4.21-5.582 8.383-11.505 11.987-17.503zM52.05 338.013c-24.57 40.89-77.095 54.492-117.255 30.362s-52.99-77-28.42-117.892c24.57-40.892 77.386-54.568 117.546-30.438 40.16 24.13 52.7 77.076 28.13 117.968z" stroke="#0A90B5" stroke-width="1.82"/><path d="M102.507 130.155c.06-.174.108-.356.148-.546.04-.19.07-.395.09-.615.02-.22.032-.456.04-.71.008-.252.012-.53.012-.835v-5.897l-.924-.12v-.8h3.53v.8l-.894.126v5.077c0 .32-.005.637-.012.95-.008.312-.02.608-.04.89-.017.28-.042.538-.076.773-.034.236-.076.438-.127.608-.123.368-.305.69-.545.97-.24.28-.51.514-.806.706-.297.192-.607.34-.93.448-.324.107-.63.172-.92.196l-.366-.522c.205-.07.4-.154.586-.25.186-.094.357-.203.513-.326.156-.122.295-.26.418-.412.122-.152.223-.323.302-.513zm5.332-8.3c-.13 0-.258-.02-.38-.065-.122-.043-.23-.105-.326-.186-.095-.082-.17-.18-.228-.297-.057-.117-.086-.248-.086-.395 0-.162.036-.312.107-.45.07-.14.165-.26.28-.36.118-.1.248-.18.392-.237.143-.057.287-.086.43-.086.177 0 .33.025.455.076.126.052.23.12.314.205.082.086.143.187.183.304.04.116.06.24.06.37 0 .17-.036.325-.105.463-.07.14-.16.256-.272.353-.113.097-.24.172-.385.226-.144.053-.29.08-.44.08zm-1.512 7.315l.89-.154v-4.188l-.783-.67v-.475l2.044-.635.396.136v5.844l.9.142v.676h-3.448v-.676zm4.397 0l.77-.142v-4.3l-.824-.523v-.582l1.933-.575.36.12v.86c.128-.124.278-.242.452-.357.173-.114.36-.217.557-.308.197-.09.402-.165.613-.222.21-.057.42-.09.625-.098.213-.012.415-.005.604.02.19.027.365.074.525.143.16.07.3.164.425.285.125.12.226.272.305.454.135-.11.286-.22.454-.326.167-.107.348-.202.542-.285.193-.083.397-.15.61-.202.213-.05.433-.078.658-.082.383-.004.708.052.974.17.267.116.485.292.655.527.17.235.293.532.37.89.077.358.116.774.116 1.25v3.137l.905.148v.676h-3.33v-.676l.74-.148v-2.9c0-.38-.02-.696-.06-.947-.042-.25-.113-.45-.21-.6-.1-.148-.234-.25-.404-.308-.17-.057-.38-.084-.633-.08-.194.008-.393.047-.6.116-.204.07-.396.16-.573.276.027.133.05.292.065.476s.023.416.023.697v3.27l.87.147v.676h-3.412v-.676l.866-.154v-2.96c0-.38-.025-.692-.074-.938-.05-.245-.13-.44-.24-.58-.11-.143-.255-.24-.433-.292-.18-.05-.394-.07-.647-.053-.075.008-.16.023-.254.044-.096.022-.194.05-.295.086-.1.036-.2.08-.3.134-.098.053-.188.112-.27.175V127.017c0 .162-.002.334-.004.516l-.002.54V129.022l.823.148v.676h-3.275v-.676zm15.665-.012l.966-.23v-7.274l-.924-.12v-.9h2.62l3.737 6.335.663 1.548v-6.852l-1.03-.143v-.89h3.044v.89l-.888.125v8.198h-1.844l-3.525-5.754-.71-1.643v6.465l1.18.243v.688h-3.29v-.688zm9.972-2.527c0-.505.08-.978.243-1.417.162-.44.394-.82.696-1.142.303-.32.67-.576 1.097-.764.43-.188.91-.284 1.443-.288.423-.004.792.053 1.108.17.316.116.58.282.79.498.212.215.373.476.484.783.11.305.174.646.19 1.022.007.25 0 .468-.018.656-.02.188-.04.36-.06.513h-4.248c0 .013 0 .024.003.033l.002.027c.024.407.092.754.205 1.038.112.285.26.517.444.697.185.18.397.312.638.395.24.083.498.124.77.124.146 0 .3-.007.465-.023.164-.015.326-.04.486-.07.16-.032.314-.072.464-.12.15-.047.29-.102.415-.165l.27.64c-.133.115-.3.22-.502.318-.202.097-.42.18-.658.246-.237.066-.487.118-.75.153-.262.036-.524.052-.784.048-.51-.003-.963-.084-1.36-.243-.397-.158-.732-.38-1.004-.67-.273-.29-.48-.64-.62-1.053-.14-.413-.21-.88-.21-1.403zm4.367-.812c.01-.17.02-.347.022-.53.004-.184-.006-.36-.032-.53-.026-.172-.073-.328-.142-.47-.07-.142-.17-.26-.305-.35-.083-.055-.18-.1-.29-.13-.11-.032-.238-.048-.38-.048-.233 0-.437.053-.613.16-.176.107-.325.253-.448.44-.122.185-.22.403-.293.655-.074.25-.122.52-.146.803h2.625zm2.89-1.595l-.646-.143v-.872h3.022v.872l-.68.155.864 3.12.255 1.09.19-.99 1.125-4.247h1.422l1.096 4.248.255 1.038.23-1.015.765-3.245-.758-.155v-.872h2.707v.866l-.788.172-1.63 5.684h-1.57l-1.072-3.684-.25-1.104-.224 1.104-.978 3.684h-1.505l-1.83-5.707zm10.884-2.8l-.86-.28v-.693l2.253-.255.29.1v3.24c.198-.14.437-.26.72-.365.282-.105.615-.158.998-.158.352 0 .694.06 1.028.175.334.117.63.304.89.56.258.258.466.592.624 1.004.158.412.237.914.237 1.507 0 .495-.085.968-.255 1.42-.17.454-.41.853-.724 1.2-.312.346-.688.62-1.128.827-.44.206-.93.31-1.467.31-.295 0-.59-.018-.884-.052-.295-.033-.56-.075-.8-.124-.24-.05-.442-.102-.608-.158-.166-.055-.27-.104-.314-.148v-8.11zm1.683 7.344c.055.126.177.24.364.338.19.1.437.148.745.148.205 0 .408-.046.607-.14.2-.092.38-.246.537-.462.157-.214.286-.5.387-.856.1-.356.157-.795.168-1.317.012-.443-.033-.824-.136-1.142-.104-.318-.24-.58-.407-.783-.168-.204-.358-.353-.57-.448-.215-.095-.428-.142-.64-.142-.25 0-.462.028-.635.086-.174.057-.314.113-.42.17v4.55zm5.504-2.136c0-.505.082-.978.244-1.417.162-.44.394-.82.696-1.142.303-.32.668-.576 1.097-.764.428-.188.91-.284 1.442-.288.422-.004.79.053 1.107.17.316.116.58.282.79.498.213.215.374.476.484.783.112.305.175.646.19 1.022.01.25.003.468-.017.656s-.04.36-.06.513h-4.248c0 .013 0 .024.003.033l.003.027c.025.407.093.754.206 1.038.112.285.26.517.444.697.184.18.396.312.637.395.24.083.498.124.77.124.147 0 .302-.007.465-.023.164-.015.326-.04.486-.07.16-.032.315-.072.465-.12.15-.047.29-.102.415-.165l.273.64c-.134.115-.3.22-.503.318-.2.097-.42.18-.658.246-.238.066-.487.118-.75.153-.263.036-.524.052-.785.048-.51-.003-.963-.084-1.36-.243-.397-.158-.732-.38-1.004-.67-.272-.29-.478-.64-.618-1.053-.14-.413-.21-.88-.21-1.403zm4.368-.812c.012-.17.02-.347.024-.53.004-.184-.007-.36-.033-.53-.027-.172-.074-.328-.143-.47-.07-.142-.17-.26-.305-.35-.083-.055-.18-.1-.29-.13-.11-.032-.238-.048-.38-.048-.233 0-.437.053-.613.16-.177.107-.326.253-.448.44-.123.185-.22.403-.294.655-.073.25-.12.52-.145.803h2.625zm2.844 3.352l.83-.142v-4.3l-.824-.523v-.582l1.926-.575.36.113v1.057c.06-.162.163-.315.31-.457.145-.142.307-.266.485-.37.177-.106.36-.19.547-.25.188-.06.356-.092.507-.092.134 0 .257.005.37.015.112.01.192.025.24.044v1.59c-.115-.075-.266-.135-.453-.18-.187-.046-.38-.07-.577-.07-.166 0-.312.01-.44.03-.125.02-.238.046-.336.078-.1.03-.183.065-.252.1-.07.036-.127.07-.175.102v4.235l1.51.178v.676h-4.028v-.676zm5.872 2.427c.087.02.19.04.31.06.12.02.253.027.395.023.113 0 .244-.02.39-.063.146-.04.294-.126.444-.255.15-.128.296-.313.44-.554.14-.242.263-.562.366-.962h-.29l-2.353-5.63-.557-.136v-.872h3.153v.872l-.753.15 1.262 3.51.22.902.254-.9 1.067-3.537-.86-.125v-.872h2.815v.872l-.622.113c-.28.755-.528 1.416-.74 1.98-.214.567-.4 1.056-.555 1.47l-.393 1.044c-.107.282-.196.518-.27.706l-.174.45c-.044.113-.08.21-.113.288-.166.436-.333.824-.5 1.164-.168.34-.35.63-.543.87-.193.238-.406.426-.64.563-.233.136-.495.216-.788.24-.166.02-.344.026-.534.018-.087-.008-.173-.018-.258-.03-.084-.012-.145-.03-.18-.053l.006-1.305zM55.036 83.72h-1.37l.188-.923 1.472-.654.156-.903c.11-.644.302-1.24.575-1.786.273-.547.61-1.02 1.01-1.422.402-.402.857-.716 1.365-.945.508-.228 1.056-.342 1.643-.342.283 0 .576.015.876.046.302.032.59.107.867.224l-.632 1.796c-.063-.048-.14-.102-.23-.16-.088-.06-.192-.115-.31-.167-.117-.05-.25-.093-.4-.124-.147-.032-.312-.048-.49-.048-.27 0-.496.054-.675.16-.18.108-.33.27-.45.484-.122.214-.22.48-.297.794-.076.315-.145.683-.207 1.106l-.166 1.235h2.416l-.197 1.63H57.74l-1.296 10.62c-.09.707-.252 1.366-.487 1.98-.236.61-.544 1.146-.924 1.603-.38.457-.83.818-1.348 1.085-.518.266-1.106.4-1.763.4-.186 0-.37-.006-.554-.016-.183-.01-.355-.024-.518-.042-.162-.017-.31-.038-.44-.062-.132-.024-.24-.047-.322-.067l.57-1.827.25.1c.13.05.28.103.45.155.17.052.342.097.52.135.175.038.325.057.45.057.338 0 .61-.197.82-.592.206-.394.358-.948.455-1.66l1.43-11.867zm5.516 5.804c-.02-.983.112-1.926.4-2.83.286-.902.7-1.7 1.243-2.397.543-.695 1.198-1.25 1.965-1.666.768-.414 1.625-.622 2.572-.622.698 0 1.315.107 1.85.322.536.214.987.526 1.354.934.366.41.646.91.84 1.5.193.592.3 1.265.32 2.02.015.65-.04 1.29-.16 1.915s-.306 1.217-.554 1.774c-.25.557-.557 1.07-.923 1.537-.368.468-.782.87-1.245 1.205-.464.336-.973.6-1.53.79-.556.19-1.15.284-1.778.284-.698 0-1.313-.108-1.846-.322-.53-.215-.98-.525-1.347-.93-.366-.404-.646-.903-.84-1.495-.193-.59-.3-1.264-.32-2.02zm4.77 3.468c.352 0 .668-.092.948-.275.28-.184.527-.43.742-.743.214-.31.395-.675.544-1.09.15-.415.27-.853.363-1.313.092-.46.156-.93.19-1.41.035-.482.05-.947.042-1.397-.02-1.156-.176-2.013-.466-2.57-.29-.557-.73-.835-1.317-.835-.354 0-.672.09-.955.275-.283.183-.534.43-.752.737-.218.308-.404.668-.56 1.08-.155.41-.28.847-.378 1.308-.097.46-.166.927-.208 1.4-.04.475-.055.934-.04 1.377.027 1.162.184 2.03.47 2.6.288.57.746.857 1.375.857zm9.03-8.897l-1.078-.623.187-.924 2.956-.54.52.25v2.595c.11-.312.263-.634.46-.966.197-.332.437-.638.72-.92.284-.28.61-.51.98-.69.37-.18.783-.27 1.24-.27.145 0 .28.018.41.053.127.035.22.076.274.124l-.59 2.928c-.084-.07-.23-.124-.437-.166-.207-.042-.425-.062-.653-.062-.228 0-.458.026-.69.078-.23.05-.457.138-.68.26-.22.12-.436.28-.647.482-.21.2-.41.446-.596.737l-1.006 7.642h-2.684l1.317-9.987zm12.723-4.547l-1.368-.26.134-1.09h5.714l-.103 1.09-1.46.26L91.2 89.17l.3 2.462.675-2.108 3.39-8.606-.135-1.39-1.44-.24.103-1.09H99.9l-.154 1.09-1.493.25 1.026 9.633.092 2.462.8-2.263 4.074-9.812-1.846-.27.104-1.09h5.267l-.134 1.09-1.44.26-6.43 14.638H97.06l-1.057-10.143-3.982 10.143h-2.716l-2.23-14.638zm18.913 10.07c.007-.692.086-1.362.238-2.01.152-.646.365-1.252.638-1.816.273-.564.603-1.078.99-1.542.387-.463.817-.86 1.29-1.193.474-.333.986-.59 1.536-.774.55-.183 1.125-.275 1.726-.275.546 0 1.018.066 1.415.197.4.132.727.315.986.55.26.236.453.51.58.826.13.316.196.657.203 1.023.006.554-.1 1.054-.317 1.5-.218.447-.51.843-.876 1.19-.367.345-.785.645-1.255.897-.47.253-.954.46-1.452.623-.497.163-.986.287-1.467.374-.48.086-.91.133-1.29.14-.02.436.005.853.077 1.25.073.4.192.752.358 1.06.166.308.385.552.658.732.273.18.603.27.99.27.67 0 1.28-.148 1.83-.443.55-.294 1.043-.67 1.478-1.126l.57.967c-.145.214-.354.453-.627.716-.273.263-.605.51-.995.737-.39.228-.833.42-1.327.57-.495.153-1.032.23-1.613.23-.78 0-1.448-.132-2-.395-.554-.263-1.005-.613-1.354-1.05-.35-.435-.603-.933-.762-1.494-.16-.56-.235-1.137-.228-1.732zm2.965-1.485c.242-.014.506-.055.793-.124.287-.07.578-.17.87-.303.295-.13.577-.288.846-.472.27-.183.51-.396.72-.638.212-.243.38-.51.504-.805.124-.294.183-.614.176-.96-.014-.512-.114-.89-.3-1.137-.187-.246-.446-.37-.778-.37-.31 0-.593.078-.845.23-.254.152-.48.355-.68.607-.2.253-.375.545-.524.877-.15.332-.277.676-.384 1.032-.107.357-.193.713-.26 1.07-.065.356-.11.687-.14.99zm10.11-9.457l-1.027-.447.218-.873 3.12-.405.54.28-.81 6.126c.167-.173.357-.34.572-.504.214-.163.447-.306.7-.43.252-.125.525-.226.82-.302.292-.076.605-.114.937-.114.6 0 1.123.106 1.566.317.44.21.81.512 1.103.903.294.39.513.863.658 1.417.146.554.22 1.173.22 1.858 0 .63-.07 1.258-.208 1.884-.14.627-.343 1.23-.612 1.807-.27.578-.6 1.116-.996 1.614-.394.498-.845.93-1.353 1.298-.507.367-1.068.656-1.684.867-.615.21-1.278.316-1.99.316-.215 0-.434-.014-.66-.042-.223-.028-.446-.062-.668-.104-.22-.04-.432-.09-.632-.145-.2-.057-.38-.112-.54-.167l-1.264.456 1.99-15.614zm.798 14.035c.18.084.374.143.582.178.207.034.435.052.684.052.442 0 .842-.092 1.198-.275.356-.184.67-.43.943-.743.273-.31.51-.676.71-1.095.2-.42.365-.863.493-1.334.128-.47.223-.955.285-1.453.062-.5.093-.987.093-1.464 0-.43-.034-.824-.103-1.184-.07-.36-.173-.667-.31-.924-.14-.256-.31-.455-.51-.597-.2-.14-.43-.21-.694-.21-.24 0-.476.04-.704.123-.228.083-.443.194-.643.332-.2.14-.387.295-.56.468-.173.173-.325.35-.456.53l-1.006 7.598zm13.646.375l1.587-.31 1.71-13.227-1.43-.26.114-1.09h3.183c.518-.007 1.047-.036 1.586-.088.54-.052 1.086-.078 1.64-.078 1.153 0 2.133.16 2.938.483.805.32 1.462.77 1.97 1.35.508.577.878 1.262 1.11 2.055.23.792.35 1.656.357 2.59.015 1.405-.16 2.704-.528 3.898-.366 1.194-.915 2.227-1.648 3.1-.733.87-1.644 1.55-2.732 2.034-1.09.484-2.35.72-3.78.706-.124 0-.285-.01-.482-.026-.197-.017-.36-.033-.492-.047-.125-.007-.28-.017-.462-.03-.183-.015-.375-.025-.575-.032l-.595-.02c-.197-.008-.372-.01-.524-.01h-3.058l.114-.998zm4.448-.394c.125.042.275.08.45.115.178.034.357.066.54.093.184.028.364.05.54.063.176.014.333.02.472.02.65-.02 1.233-.153 1.752-.398.518-.246.975-.57 1.37-.97.393-.402.73-.868 1.01-1.397.28-.53.508-1.096.684-1.698.176-.602.304-1.22.383-1.858.08-.638.116-1.264.11-1.88-.008-.99-.087-1.832-.24-2.528-.15-.696-.383-1.263-.694-1.703-.31-.44-.706-.76-1.186-.96-.48-.202-1.056-.302-1.726-.302-.173 0-.35.007-.53.02-.18.015-.348.034-.507.058-.158.024-.303.05-.435.078-.13.027-.235.055-.31.083l-1.68 13.164zm11.55-3.072c.008-.692.088-1.362.24-2.01.152-.646.364-1.252.637-1.816.274-.564.604-1.078.992-1.542.387-.463.817-.86 1.29-1.193.474-.333.985-.59 1.535-.774.55-.183 1.125-.275 1.726-.275.546 0 1.018.066 1.416.197.396.132.725.315.984.55.26.236.452.51.58.826.128.316.196.657.203 1.023.006.554-.1 1.054-.317 1.5-.217.447-.51.843-.876 1.19-.366.345-.784.645-1.254.897-.47.253-.954.46-1.452.623-.498.163-.987.287-1.467.374-.48.086-.91.133-1.29.14-.02.436.005.853.078 1.25.072.4.19.752.357 1.06.166.308.386.552.66.732.272.18.602.27.99.27.67 0 1.28-.148 1.83-.443.55-.294 1.04-.67 1.477-1.126l.57.967c-.145.214-.354.453-.627.716-.273.263-.605.51-.996.737-.39.228-.834.42-1.328.57-.494.153-1.032.23-1.612.23-.78 0-1.45-.132-2.002-.395-.553-.263-1.004-.613-1.353-1.05-.35-.435-.603-.933-.762-1.494-.16-.56-.235-1.137-.228-1.732zm2.967-1.485c.243-.014.507-.055.794-.124.287-.07.577-.17.87-.303.295-.13.576-.288.846-.472.27-.183.51-.396.72-.638.21-.243.38-.51.503-.805.125-.294.184-.614.177-.96-.014-.512-.114-.89-.3-1.137-.188-.246-.447-.37-.78-.37-.31 0-.59.078-.844.23-.252.152-.478.355-.68.607-.2.253-.374.545-.523.877-.148.332-.276.676-.383 1.032-.107.357-.194.713-.26 1.07-.065.356-.112.687-.14.99zm7.85 3.665c.11.09.26.192.45.306.19.114.405.222.644.322.238.1.5.185.788.254.286.07.585.104.897.104.2 0 .408-.017.626-.052.218-.034.416-.102.596-.202.18-.1.328-.24.446-.42.117-.18.176-.416.176-.707 0-.25-.048-.477-.145-.685-.098-.208-.23-.406-.395-.597-.166-.19-.36-.373-.586-.55-.226-.176-.466-.357-.72-.544-.21-.152-.435-.34-.68-.566-.246-.225-.474-.486-.685-.784-.21-.297-.385-.633-.524-1.007-.137-.374-.206-.786-.206-1.236 0-.554.118-1.043.353-1.47.235-.425.553-.783.953-1.074.4-.29.87-.51 1.405-.66.536-.148 1.105-.222 1.706-.222.278 0 .558.012.84.036.284.025.547.056.79.094.24.038.455.08.642.124.186.045.32.09.404.13l-.415 1.94c-.047-.06-.135-.144-.263-.248-.128-.104-.287-.204-.477-.3-.19-.098-.41-.182-.663-.255-.253-.074-.53-.11-.835-.11-.22 0-.434.022-.638.067-.204.045-.39.12-.555.224-.166.104-.303.24-.41.405-.107.167-.17.37-.192.613-.014.242.017.47.093.685.077.215.193.422.35.623.154.2.344.4.57.597.224.197.47.396.74.597.27.208.538.43.804.67.266.238.503.505.71.8.208.293.375.618.503.975.128.356.192.752.192 1.188 0 .596-.127 1.108-.38 1.537-.252.43-.59.784-1.01 1.064-.422.28-.906.488-1.452.623-.546.135-1.11.202-1.69.202-.325 0-.655-.02-.99-.063-.336-.04-.652-.093-.95-.156-.296-.06-.556-.132-.777-.21-.22-.08-.38-.16-.476-.235l.436-1.827zm9.83 1.028c.048-.416.113-.926.196-1.532l.285-2.055c.11-.766.226-1.597.354-2.493.128-.896.26-1.843.4-2.84l-1.618-.53.186-.84 3.878-.53.54.25-1.39 9.676c-.076.526.024.79.3.79.118 0 .253-.043.405-.126.152-.083.36-.24.622-.467l.31.654c-.054.076-.16.197-.315.363-.156.167-.353.334-.59.504-.24.17-.52.32-.84.447-.322.128-.673.192-1.053.192-.582 0-1.02-.125-1.313-.374-.294-.25-.413-.613-.358-1.09zm3.1-12.894c-.2 0-.39-.042-.566-.125-.176-.083-.33-.194-.46-.332-.132-.14-.236-.298-.312-.478-.076-.18-.11-.366-.104-.56.007-.242.06-.47.156-.68.097-.21.224-.396.383-.556.16-.158.344-.284.555-.378.21-.093.437-.14.68-.14.234 0 .45.04.642.12.194.08.356.187.487.32.133.136.23.29.297.458.066.17.095.348.088.535-.007.242-.053.474-.14.695-.086.222-.21.416-.368.582-.16.166-.35.297-.575.394-.225.097-.48.146-.763.146zm3.95 16.984c.097.062.244.138.44.228.198.09.424.177.68.26.256.083.53.156.82.218.29.062.576.093.86.093.394 0 .73-.026 1.005-.078.277-.05.508-.154.695-.306.187-.15.335-.367.446-.648.11-.28.197-.645.26-1.095l.352-2.523c-.173.166-.363.322-.57.468-.208.145-.436.275-.685.39-.25.113-.513.203-.793.27-.28.064-.58.097-.897.097-.615 0-1.146-.115-1.592-.343-.445-.23-.81-.542-1.098-.94-.287-.398-.5-.867-.637-1.406-.14-.54-.208-1.12-.208-1.744 0-.602.068-1.214.202-1.837.134-.624.333-1.226.596-1.807.262-.582.59-1.127.98-1.636.39-.508.84-.953 1.352-1.334.512-.38 1.084-.68 1.716-.903.633-.22 1.323-.332 2.07-.332.435 0 .868.048 1.3.145.432.097.8.2 1.105.312l1.46-.457-1.866 12.873c-.083.576-.23 1.088-.446 1.538-.214.45-.475.842-.782 1.178-.308.336-.654.62-1.037.85-.385.233-.786.42-1.204.562-.418.142-.843.244-1.275.306-.432.062-.848.093-1.25.093-.24 0-.488-.012-.74-.036-.253-.023-.493-.056-.72-.097-.23-.042-.436-.087-.623-.135-.187-.05-.332-.097-.435-.146l.518-2.076zm3.515-4.267c.228 0 .45-.04.664-.115.213-.076.417-.175.61-.296.194-.122.375-.262.545-.42.17-.16.323-.323.46-.49l1.13-7.734c-.178-.083-.372-.142-.58-.176-.207-.035-.42-.052-.642-.052-.456 0-.866.095-1.23.285-.362.19-.683.45-.963.774-.28.325-.52.7-.72 1.126-.2.426-.366.874-.493 1.345-.128.47-.222.948-.28 1.432-.06.485-.088.95-.088 1.39 0 .943.14 1.666.424 2.17.283.506.67.76 1.16.76zm9.57-8.566l-1.057-.612.176-.924 3.193-.54.52.25-.188 2.16c.255-.348.535-.668.84-.962.303-.294.628-.548.974-.763.345-.214.707-.382 1.083-.503.377-.12.762-.182 1.156-.182.38 0 .726.054 1.037.16.31.108.58.285.804.53.225.246.4.57.523.97.125.402.187.894.187 1.475 0 .208-.017.462-.052.763-.034.3-.077.62-.13.96-.05.34-.108.68-.17 1.023-.063.342-.118.658-.166.95-.05.262-.097.534-.145.814-.048.28-.095.56-.14.836-.044.277-.082.548-.114.815-.03.266-.05.514-.057.742-.007.25.018.424.077.524.06.102.137.152.234.152.104 0 .223-.03.358-.094.135-.062.323-.19.565-.384l.3.654c-.047.07-.146.182-.294.338-.15.155-.34.31-.572.467-.23.156-.504.294-.82.415-.313.12-.657.182-1.03.182-.34 0-.62-.04-.84-.12-.222-.08-.396-.19-.524-.332-.128-.142-.216-.308-.264-.498-.05-.19-.07-.4-.063-.628.007-.194.026-.417.057-.67.03-.252.07-.52.114-.804.045-.284.095-.577.15-.878.056-.3.11-.597.167-.887.048-.29.105-.61.17-.955.066-.346.125-.7.177-1.06.052-.36.095-.72.13-1.08.034-.36.05-.695.05-1.006 0-.332-.02-.597-.066-.794-.045-.197-.11-.35-.197-.462-.087-.11-.193-.184-.317-.218-.125-.035-.266-.052-.425-.052-.228 0-.476.064-.742.192s-.532.305-.798.53c-.266.224-.527.49-.783.794-.256.304-.487.63-.695.975l-1.057 7.735h-2.686l1.348-9.998zm11.572 5.534c.007-.692.086-1.362.238-2.01.152-.646.365-1.252.638-1.816.273-.564.603-1.078.99-1.542.387-.463.817-.86 1.29-1.193.474-.333.986-.59 1.536-.774.548-.183 1.124-.275 1.725-.275.546 0 1.018.066 1.415.197.398.132.726.315.985.55.26.236.453.51.58.826.13.316.196.657.203 1.023.007.554-.098 1.054-.316 1.5-.218.447-.51.843-.876 1.19-.367.345-.785.645-1.255.897-.47.253-.953.46-1.45.623-.498.163-.987.287-1.468.374-.48.086-.91.133-1.29.14-.02.436.005.853.077 1.25.072.4.19.752.357 1.06.166.308.385.552.658.732.273.18.603.27.99.27.67 0 1.28-.148 1.83-.443.55-.294 1.043-.67 1.478-1.126l.57.967c-.145.214-.354.453-.627.716-.273.263-.605.51-.995.737-.39.228-.832.42-1.326.57-.495.153-1.032.23-1.613.23-.78 0-1.447-.132-2-.395-.553-.263-1.004-.613-1.353-1.05-.35-.435-.603-.933-.762-1.494-.16-.56-.235-1.137-.228-1.732zm2.965-1.485c.242-.014.507-.055.793-.124.287-.07.578-.17.87-.303.295-.13.577-.288.846-.472.27-.183.51-.396.722-.638.21-.243.378-.51.503-.805.124-.294.183-.614.176-.96-.013-.512-.113-.89-.3-1.137-.186-.246-.445-.37-.777-.37-.31 0-.593.078-.845.23-.253.152-.48.355-.68.607-.2.253-.374.545-.523.877-.15.332-.276.676-.384 1.032-.106.357-.192.713-.258 1.07-.066.356-.112.687-.14.99zm9.59-4.038l-1.077-.623.187-.924 2.955-.54.518.25v2.595c.11-.312.264-.634.46-.966.198-.332.44-.638.722-.92.283-.28.61-.51.98-.69.37-.18.783-.27 1.24-.27.144 0 .28.018.41.053.126.035.218.076.273.124l-.59 2.928c-.084-.07-.23-.124-.436-.166-.208-.042-.425-.062-.653-.062-.228 0-.457.026-.69.078-.23.05-.457.138-.678.26-.22.12-.437.28-.648.482-.21.2-.41.446-.596.737l-1.006 7.642h-2.686l1.317-9.987zm6.97 7.703c.11.09.26.192.45.306.19.114.404.222.643.322.238.1.5.185.788.254.287.07.586.104.897.104.2 0 .41-.017.627-.052.218-.034.417-.102.596-.202.18-.1.33-.24.446-.42.117-.18.175-.416.175-.707 0-.25-.048-.477-.145-.685-.097-.208-.228-.406-.394-.597-.166-.19-.36-.373-.586-.55-.224-.176-.464-.357-.72-.544-.208-.152-.434-.34-.68-.566-.245-.225-.473-.486-.684-.784-.21-.297-.385-.633-.523-1.007-.14-.374-.208-.786-.208-1.236 0-.554.118-1.043.353-1.47.235-.425.553-.783.954-1.074.4-.29.87-.51 1.405-.66.535-.148 1.104-.222 1.705-.222.277 0 .557.012.84.036.284.025.546.056.788.094s.456.08.643.124c.187.045.322.09.405.13l-.415 1.94c-.05-.06-.137-.144-.265-.248-.128-.104-.287-.204-.477-.3-.19-.098-.41-.182-.662-.255-.253-.074-.53-.11-.835-.11-.22 0-.434.022-.638.067-.203.045-.388.12-.554.224-.165.104-.302.24-.41.405-.106.167-.17.37-.19.613-.014.242.017.47.093.685.076.215.19.422.347.623.156.2.346.4.57.597.225.197.472.396.742.597.27.208.537.43.803.67.266.238.503.505.71.8.208.293.375.618.503.975.128.356.192.752.192 1.188 0 .596-.126 1.108-.378 1.537-.253.43-.59.784-1.01 1.064-.423.28-.907.488-1.453.623-.547.135-1.11.202-1.69.202-.326 0-.656-.02-.99-.063-.336-.04-.653-.093-.95-.156-.297-.06-.556-.132-.778-.21-.22-.08-.38-.16-.477-.235l.436-1.827z" fill="#0A90B5"/><path d="M31.915 58.39h2.48l-1.214-8.917-1.265 8.916zm-6.08 8.128l5.187-24.026h4.292l5.173 24.026H35.7l-.986-5.14h-3.132l-.934 5.14h-4.812zm16.123-8.93V42.492h4.853v14.95c0 .854.005 1.474.014 1.86.01.388.03.86.067 1.416.036.556.1.946.187 1.168.09.223.212.463.367.72.156.26.358.428.607.508.25.08.552.12.907.12.356 0 .658-.04.907-.12.25-.08.45-.247.606-.5.156-.254.278-.492.367-.714.09-.223.15-.608.186-1.155.036-.547.058-1.01.067-1.388.01-.378.013-.99.013-1.836V42.493h4.853v15.096c0 .765-.022 1.46-.067 2.082-.045.623-.13 1.268-.254 1.936-.124.667-.293 1.257-.506 1.768-.214.512-.498 1.002-.854 1.47-.355.466-.775.85-1.26 1.153-.484.303-1.068.543-1.753.72-.684.18-1.453.268-2.306.268s-1.622-.09-2.306-.267c-.683-.178-1.266-.418-1.746-.72-.48-.303-.897-.688-1.253-1.155-.354-.467-.64-.957-.852-1.47-.213-.51-.384-1.1-.513-1.767-.13-.668-.216-1.313-.26-1.936-.044-.622-.067-1.317-.067-2.082zm19.176 8.93V46.123h-3.52v-3.63H69.44v3.63h-3.454v20.395h-4.852zm9.523-7.902V50.54c0-5.677 2.337-8.515 7.012-8.515 4.683 0 7.025 2.838 7.025 8.516v7.956c0 .96-.07 1.85-.213 2.663-.143.813-.385 1.585-.727 2.315-.342.73-.778 1.35-1.306 1.862-.53.51-1.2.914-2.008 1.208-.81.293-1.733.44-2.773.44-1.032 0-1.952-.145-2.76-.434-.81-.288-1.476-.68-2-1.173-.524-.494-.958-1.1-1.3-1.816-.342-.715-.586-1.478-.733-2.288-.147-.81-.22-1.695-.22-2.656zm9.185 1.095V49.327c0-2.367-.724-3.55-2.173-3.55-.436 0-.805.11-1.107.327-.302.218-.525.516-.667.894-.142.378-.242.752-.3 1.12-.057.37-.086.773-.086 1.21V59.71c0 2.36.72 3.538 2.16 3.538 1.448 0 2.172-1.18 2.172-3.537zm7.55 6.808V42.492h5.813l2.56 16.017 2.76-16.018h5.612v24.026h-3.573l-.107-16.898c-.266 1.735-.733 4.55-1.4 8.45-.666 3.896-1.133 6.713-1.4 8.448h-3.625l-2.947-17.005-.106 17.005h-3.587zm24.522-8.13h2.48l-1.214-8.915-1.266 8.916zm-6.08 8.13l5.187-24.026h4.293l5.173 24.026H115.7l-.987-5.14h-3.132l-.933 5.14h-4.812zm17.963 0V46.123h-3.52v-3.63h11.825v3.63h-3.452v20.395h-4.853zm10.07 0V42.492h10.012v3.337h-5.16v6.54h3.652v3.416h-3.652v7.395h5.16v3.338h-10.013zm11.897 0V42.492h5.012c1.6 0 2.917.145 3.953.434 1.034.29 1.847.765 2.438 1.428.59.663 1 1.457 1.227 2.383.226.925.34 2.104.34 3.537v7.875c0 .853-.027 1.598-.08 2.235-.054.636-.154 1.26-.3 1.868-.147.61-.347 1.126-.6 1.55-.253.42-.58.815-.98 1.18s-.882.654-1.446.867c-.566.214-1.228.38-1.988.494-.76.116-1.633.174-2.62.174h-4.958zm5.04-3.404c.46 0 .825-.006 1.092-.02.266-.013.533-.047.8-.1.266-.053.462-.127.586-.22.125-.094.24-.23.347-.407.106-.178.174-.39.206-.634.03-.245.046-.55.046-.915V47.884c0-.792-.235-1.317-.706-1.575-.47-.26-1.262-.392-2.373-.4v17.204zm18.526 3.404V46.123h-3.52v-3.63h11.825v3.63h-3.453v20.395h-4.852zm10.07 0V42.492h10.012v3.337h-5.16v6.54h3.653v3.416h-3.653v7.395h5.16v3.338H179.4zm11.07-6.874l4.92-.948c0 .49.008.92.026 1.295.017.375.064.782.14 1.222.075.44.177.8.306 1.08.13.282.31.517.547.71.234.19.512.286.832.286.96 0 1.44-.614 1.44-1.842 0-1.682-.947-3.355-2.84-5.02l-1.506-1.28c-.48-.4-.862-.735-1.147-1-.285-.268-.62-.63-1.007-1.083-.387-.453-.69-.892-.907-1.314-.217-.424-.404-.934-.56-1.53-.155-.596-.233-1.228-.233-1.895 0-1.95.618-3.49 1.853-4.625 1.236-1.135 2.875-1.702 4.92-1.702 1.697 0 3.14.605 4.332 1.815 1.19 1.21 1.786 2.67 1.786 4.378l-.013.175v.4l-5.01.694c0-.098.005-.252.02-.46.012-.21.02-.38.02-.515 0-.32-.024-.627-.068-.92-.045-.295-.118-.588-.22-.882-.102-.293-.26-.527-.473-.7-.215-.174-.472-.26-.775-.26-.533 0-.933.208-1.2.626-.266.418-.4.912-.4 1.48 0 .5.078.967.234 1.403.155.436.39.843.706 1.22.315.38.606.693.873.942.265.25.62.554 1.065.914.445.36.76.624.947.793.684.605 1.262 1.173 1.733 1.702.47.53.915 1.128 1.333 1.795.418.668.73 1.39.94 2.163.21.774.313 1.61.313 2.51 0 1.68-.6 3.058-1.8 4.13-1.198 1.073-2.656 1.61-4.37 1.61-1.112 0-2.1-.206-2.96-.615-.863-.41-1.558-.966-2.087-1.67-.53-.702-.936-1.48-1.22-2.335-.284-.854-.45-1.77-.493-2.75zm17.295 6.874V46.123h-3.52v-3.63h11.826v3.63h-3.452v20.395h-4.853zm10.07 0V42.492h4.853v24.026h-4.853zm7.858 0v-24.04h3.492l5.266 12.574V42.48h4.027v24.038h-3.36l-5.252-13.335v13.335h-4.172zm15.482-7.515V50.54c0-5.677 2.36-8.515 7.08-8.515.994 0 1.88.13 2.66.394.776.26 1.427.624 1.952 1.086.524.463.955 1.033 1.293 1.71.337.675.582 1.41.733 2.2.15.793.227 1.665.227 2.617v1.415h-4.64v-1.682c0-.418-.01-.785-.033-1.1-.022-.317-.078-.668-.167-1.055-.09-.386-.21-.704-.36-.954s-.368-.458-.653-.627c-.284-.17-.622-.254-1.013-.254-1.484 0-2.226 1.183-2.226 3.55v10.37c0 2.36.742 3.538 2.226 3.538 1.475 0 2.213-1.223 2.213-3.67v-1.922h-2.746v-3.484h7.6v12.36h-3.333l-.614-1.682c-.408.64-.99 1.16-1.746 1.555-.755.397-1.533.595-2.333.595-.862 0-1.646-.158-2.353-.474-.705-.315-1.287-.733-1.745-1.254-.458-.52-.842-1.132-1.153-1.835-.31-.702-.534-1.42-.667-2.154-.133-.735-.2-1.49-.2-2.263z" fill="#0B4E61"/><path fill="#0A90B5" d="M0 7.593h273.023v10.783H0z"/><g stroke-width=".5" transform="translate(-255.428 -91.576)"><use stroke-opacity=".475" stroke="#FFF" xlink:href="#d"/><use stroke-opacity=".276" stroke="#000" xlink:href="#d"/></g></g></g></svg>