<svg width="108" height="26" viewBox="0 0 108 26" xmlns="http://www.w3.org/2000/svg"><g fill="none" fill-rule="evenodd"><path fill="#FD4444" d="M389.4-390.014l13.497 13.497-721.25 721.25-13.495-13.498z"/><path fill="#1EA8D7" d="M416.394-363.02l13.496 13.496-721.25 721.25-13.495-13.498z"/><path fill="#FD4444" d="M335.415-444l13.496 13.497-721.248 721.248-13.496-13.496z"/><path fill="#1EA8D7" d="M362.408-417.007l13.496 13.497-721.25 721.25-13.495-13.498z"/><path fill="#FD4444" d="M443.387-336.028l13.496 13.497-721.248 721.248-13.497-13.497z"/><path fill="#1EA8D7" d="M470.38-309.035l13.497 13.497-721.25 721.25-13.496-13.498z"/><path fill="#FD4444" d="M497.372-282.042l13.497 13.496-721.25 721.25-13.497-13.497z"/><path fill="#1EA8D7" d="M524.365-255.05l13.497 13.498-721.25 721.248-13.495-13.496z"/><path fill="#FD4444" d="M551.36-228.056l13.495 13.497-721.25 721.25-13.495-13.497z"/><path fill="#1EA8D7" d="M578.352-201.063l13.496 13.497-721.25 721.25-13.495-13.498z"/><path fill="#FD4444" d="M605.345-174.07l13.496 13.497-721.248 721.25-13.496-13.498z"/><path fill="#1EA8D7" d="M632.338-147.077l13.496 13.497-721.25 721.25-13.495-13.498z"/><g><path fill="#FD4444" d="M389.4-390.014l13.497 13.497-721.25 721.25-13.495-13.498z"/><path fill="#1EA8D7" d="M416.394-363.02l13.496 13.496-721.25 721.25-13.495-13.498z"/><path fill="#FD4444" d="M335.415-444l13.496 13.497-721.248 721.248-13.496-13.496z"/><path fill="#1EA8D7" d="M362.408-417.007l13.496 13.497-721.25 721.25-13.495-13.498z"/><path fill="#FD4444" d="M443.387-336.028l13.496 13.497-721.248 721.248-13.497-13.497z"/><path fill="#1EA8D7" d="M470.38-309.035l13.497 13.497-721.25 721.25-13.496-13.498z"/><path fill="#FD4444" d="M497.372-282.042l13.497 13.496-721.25 721.25-13.497-13.497z"/><path fill="#1EA8D7" d="M524.365-255.05l13.497 13.498-721.25 721.248-13.495-13.496z"/><path fill="#FD4444" d="M551.36-228.056l13.495 13.497-721.25 721.25-13.495-13.497z"/><path fill="#1EA8D7" d="M578.352-201.063l13.496 13.497-721.25 721.25-13.495-13.498z"/><path fill="#FD4444" d="M605.345-174.07l13.496 13.497-721.248 721.25-13.496-13.498z"/><path fill="#1EA8D7" d="M632.338-147.077l13.496 13.497-721.25 721.25-13.495-13.498z"/></g><g><path fill="#FD4444" d="M696.4-49.014l13.497 13.497-721.25 721.25-13.495-13.498z"/><path fill="#1EA8D7" d="M723.394-22.02L736.89-8.525 15.64 712.726 2.146 699.227z"/><path fill="#FD4444" d="M642.415-103l13.496 13.497-721.248 721.248-13.496-13.496z"/><path fill="#1EA8D7" d="M669.408-76.007l13.496 13.497-721.25 721.25-13.495-13.498z"/><path fill="#FD4444" d="M750.387 4.972l13.496 13.497L42.635 739.717 29.138 726.22z"/></g></g></svg>
