<svg width="834" height="453" viewBox="0 0 834 453" xmlns="http://www.w3.org/2000/svg"><title>Cogs</title><path d="M801.65 328.512c4.56-7.59 8.58-15.464 12.3-23.562 2.383-5.132.49-11.71-4.944-14.973l-28.908-17.372c-4.074-2.448-6.312-8.498-4.958-13.403 3.265-12.01 5.526-24.14 5.823-35.983.147-5.76 3.448-10.18 8.896-11.71l33.31-9.04c6.02-1.65 9.63-7.07 8.91-13.28-1.95-17.03-6.38-33.92-12.08-50.54-2.01-5.89-8.58-8.82-14.08-7.51l-33.36 8.07c-5.01 1.22-10.17-1.29-12.9-5.86-6.01-10.05-13.09-19.76-21.48-28.7-4.01-4.16-4.56-9.44-1.66-14.26l17.85-29.71c3.32-5.54 2.34-11.71-2.75-15.55-6.96-5.29-14.03-10.32-21.47-14.8s-15.18-8.4-23.15-12.01c-5.09-2.35-11.69-.67-15.02 4.87L674.15 52.9c-2.492 4.154-8.3 6.652-13.14 5.37-11.892-3.12-23.69-5.398-35.422-5.496-5.71-.05-10.07-3.336-11.45-8.78l-8.53-33.238c-1.53-6.05-6.86-9.55-13.01-8.76-16.91 2.25-33.754 7.063-50.29 13.05-5.87 2.125-8.82 8.59-7.545 14.1l7.427 33.523c1.08 5-1.62 10.56-6.16 13.35-10.06 6.23-20.08 13.37-29.04 22.03-4.19 4.11-9.2 4.89-13.93 2.05l-29.13-17.5c-5.438-3.27-11.65-2.54-15.548 2.66-5.354 7.11-10.47 14.33-15.03 21.92-4.56 7.59-8.72 15.69-12.44 23.79-2.41 5.18-.49 11.71 4.946 14.97L455 163.47c4.073 2.45 6.083 8.362 4.73 13.267-3.294 12.058-5.527 24.14-5.823 35.983-.147 5.76-3.338 9.99-8.757 11.48l-33.088 9.174c-6.023 1.644-9.728 7.322-9.05 13.513 1.944 17.025 6.43 33.945 12.08 50.532 2.008 5.88 8.392 8.7 13.847 7.37l33.35-8.07c4.92-1.2 10.39 1.42 13.13 5.99 6.01 10.04 13.05 19.8 21.48 28.7 3.97 4.21 4.32 9.3 1.42 14.12l-17.85 29.7c-3.3 5.49-2.35 11.7 2.74 15.54 6.96 5.28 14.02 10.32 21.47 14.79 7.44 4.47 15.18 8.39 23.14 12.01 5.09 2.34 11.71.61 15.01-4.88l17.85-29.7c2.49-4.16 8.53-6.52 13.36-5.23 11.89 3.11 23.69 5.39 35.42 5.49 5.7.05 9.84 3.2 11.23 8.64l8.53 33.23c1.55 6 7.06 9.74 13.24 8.9 16.9-2.25 33.72-7.02 50.29-13.05 5.86-2.13 8.93-8.78 7.68-14.34L692.79 373c-1.103-4.95 1.45-10.28 6.026-13.12 10.06-6.234 20.08-13.375 29.04-22.03 4.19-4.11 9.43-4.753 14.16-1.91l28.91 17.37c5.433 3.264 11.653 2.54 15.543-2.664 5.36-7.114 10.61-14.56 15.17-22.155zm-91.54-55.957c-31.102 51.755-97.9 69.092-148.665 38.586-50.765-30.5-66.582-97.49-35.48-149.24 31.1-51.75 97.53-68.99 148.296-38.49 50.77 30.51 66.95 97.4 35.85 149.15zm-309.928 73.39c4.562-7.59 8.61-15.512 12.3-23.562 2.412-5.18.442-11.737-4.943-14.974L378.4 289.9c-4.074-2.45-6.084-8.36-4.73-13.266 3.293-12.058 5.554-24.187 5.822-35.983.176-5.81 3.31-9.94 8.757-11.48l33.22-9.4c5.97-1.67 9.63-7.06 8.91-13.28-1.98-16.98-6.39-33.91-12.08-50.53-2.04-5.84-8.35-8.68-13.85-7.37l-33.36 8.07c-4.93 1.2-10.42-1.37-13.13-5.99-6.01-10.04-13.06-19.8-21.48-28.7-3.98-4.21-4.36-9.25-1.43-14.12l17.85-29.7c3.33-5.54 2.34-11.71-2.74-15.54-6.96-5.28-14.03-10.32-21.47-14.8-7.45-4.47-15.21-8.35-23.14-12.01-5.05-2.32-11.69-.66-15.02 4.88l-17.85 29.7c-2.5 4.16-8.53 6.52-13.37 5.24-11.82-3.13-23.72-5.35-35.43-5.49-5.74-.01-9.8-3.17-11.23-8.65l-8.53-33.232c-1.53-6.056-7.09-9.697-13.24-8.91-16.91 2.254-33.76 7.07-50.29 13.054-5.87 2.125-8.78 8.616-7.55 14.1l7.52 33.89c1.12 5.03-1.45 10.28-6.02 13.12-10.03 6.19-20.01 13.36-29.04 22.03-4.16 4.065-9.43 4.758-14.16 1.915l-28.91-17.37c-5.43-3.27-11.65-2.54-15.54 2.66-5.33 7.066-10.47 14.33-15.03 21.92-4.56 7.59-8.75 15.744-12.44 23.794-2.41 5.18-.49 11.71 4.94 14.97l28.91 17.38c4.07 2.45 6.31 8.5 4.96 13.407-3.3 12.06-5.56 24.19-5.83 35.985-.15 5.76-3.34 9.99-8.76 11.47l-33.455 9.28C4.165 252.6.63 258 1.31 264.19c1.972 16.977 6.4 33.992 12.078 50.532 2.01 5.885 8.62 8.845 14.076 7.51l33.35-8.07c4.974-1.17 10.21 1.316 12.9 5.857 5.983 10.09 13.06 19.8 21.48 28.7 3.974 4.2 4.553 9.44 1.655 14.26l-17.84 29.7c-3.33 5.54-2.32 11.66 2.74 15.54 6.98 5.24 14.02 10.32 21.47 14.79 7.44 4.47 15.21 8.35 23.14 12.01 5.12 2.3 11.68.66 15.01-4.88l17.85-29.71c2.46-4.11 8.3-6.65 13.14-5.37 11.89 3.12 23.69 5.4 35.42 5.5 5.7.05 10.07 3.33 11.45 8.78l8.53 33.23c1.55 6 6.83 9.6 13.01 8.76 16.88-2.21 33.75-7.07 50.29-13.05 5.89-2.18 8.74-8.57 7.54-14.1l-7.29-33.76c-1.1-4.96 1.45-10.28 6.03-13.12 10.1-6.21 20.05-13.33 29.04-22.03 4.2-4.04 9.2-4.9 13.93-2.05l29.13 17.5c5.38 3.24 11.65 2.54 15.54-2.66 5.33-7.06 10.61-14.56 15.17-22.15zm-91.907-55.862c-31.102 51.755-97.532 68.997-148.297 38.49-50.766-30.506-66.95-97.394-35.848-149.15 31.1-51.754 97.898-69.09 148.664-38.584 50.765 30.5 66.582 97.48 35.48 149.24z" stroke="#FFF" stroke-opacity=".087" stroke-width="2" fill="none"/></svg>