<svg height="44" viewBox="0 0 67 44" width="67" xmlns="http://www.w3.org/2000/svg"><g fill="none" transform="translate(4 3)"><path d="m8.78962931 16.6083586-5.20337931 2.215138-.01310345.008681-.17165517.1266121.77081034 7.828.1759138.2071982 4.95834482-2.184181-.49006896-8.1685259z" fill="#807a78"/><path d="m.80060431 24.5308509 3.5459569 2.4613189-.76212931-8.1672155.00180172-.0013103-.00065517-.0044224-3.58313793-2.2072759z" fill="#716c6b"/><path d="m0 16.6136983 3.58559483 2.2103879 5.20518103-2.2113707-3.46307758-2.1976121z" fill="#fff"/><path d="m42.1693371.03451121-5.6860776 2.24019827-.1508535.08975862-.2175172 12.1254397 5.8123621-2.68375.3708275-11.80489659z" fill="#ffdf43"/><path d="m19.957469 2.71762241.1293965 12.41076729-3.4629138-1.9363621-.5791724-12.41109484z" fill="#d7b612"/><path d="m36.4952983 2.29310345-.2990862 12.17801725-16.1481983.5136552-.1570776-12.28988797.0281724-.0879569 16.5591552-.38769827z" fill="#ffd611"/><path d="m32.4367836 10.0476914.058638 9.8621465-4.27975-2.6324827v-9.15177589z" fill="#b8131b"/><path d="m53.2597845 1.42056121-.4907242 9.71080169-20.291181 8.7698104-.0610948-9.8629655z" fill="#d1091e"/><path d="m31.1158741 11.8218983-.0330862 8.2479655-4.6777672 2.3117759.0309569-8.5311638.0691207-.0473362z" fill="#63cbc6"/><path d="m9.26133707 5.34774655 4.41831893-1.59993103 17.4362673 8.07254308-4.6097931 1.9822242z" fill="#fff"/><path d="m26.5050491 13.7989302-.0782931 8.9881465-16.59191376-9.2667586-.57049138-8.17098276z" fill="#5ca7a5"/><path d="m24.8848569 9.49855862-.0661724 13.87687928-15.19000864 6.9929828-.12448276-.1449569-.87416379-14.1926724.03685345-.1562586z" fill="#6d2d83"/><path d="m8.72285086 15.8495379.90577586 14.5184569-3.90531896-2.5951379-1.18012931-14.4416379h.01687069z" fill="#5c246e"/><path d="m58.8402647 3.40317845-.6897328 8.66187065-6.731569.1655949-.0055689-8.51773279z" fill="#009540"/><path d="m57.4539362 5.78219138-.5858879 7.34890522-34.4016293 18.3749655-.0928707-.1929483-.18525-9.3589741.0424224-.095819z" fill="#1c3d74"/><path d="m22.2389103 21.857256.2266897 9.6497069-4.3903103-2.393181-.3105518-9.7868017z" fill="#192d48"/><path d="m46.0951138 23.3331629-.2543707 4.5771983-4.3243017 2.4218448-.053888-.0565086.1272673-4.3785172.053069-.053069z" fill="#ec008c"/><path d="m41.6459853 25.8473216-.1293965 4.4849827-7.565931-3.9295603.0175258-4.6163449z" fill="#d4207c"/><path d="m20.6769957 29.9064422-.0614224.0434052.2212845 7.7800086.0833706.224888 5.4136897-2.9300949.0592931-7.8153879z" fill="#85b7e3"/><path d="m11.0045871 31.2657448 9.9161982 6.6883276-.2397931-8.0450258-10.1183189-6.2121811z" fill="#6e96b9"/><g fill="#fff"><path d="m42.301125.00001638-26.2598017.78047414 3.8501207 1.91572414 16.6055086-.40358621z"/><path d="m44.6854284 1.63457328 8.5744052-.21473276-20.843 8.61846548-4.2024396-1.91277583z"/><path d="m57.2413655 1.42103621 1.5979655 1.98156896-7.4280172.31071552 5.111-2.22168966z"/><path d="m57.4601767 5.78186379-35.2294396 16.07547411-4.4668018-2.5335517 30.6915518-13.35110344z"/><path d="m38.5334414 19.6730914 7.5623276 3.6596293-4.4518966 2.5229052-7.6805862-4.0686207z"/><path d="m15.8847207 21.3305302 10.5114224 5.8793534-5.7203103 2.6973448-10.1120949-6.2107068z"/><path d="m4.5406069 13.3315466 16.0551638-5.83987936 4.2903965 2.00941379-16.16605168 6.35156897z"/></g></g></svg>