<svg enable-background="new 0 0 233.553 135.869" viewBox="0 0 233.553 135.869" xmlns="http://www.w3.org/2000/svg"><path d="m100.747 18.673c-3.437 0-6.76-1.478-9.651-4.301-1.008-.984-1.027-2.599-.043-3.606.985-1.009 2.599-1.026 3.606-.043 1.413 1.379 3.687 2.998 6.465 2.84 3.333-.181 5.588-1.872 7.314-5.482.608-1.271 2.131-1.808 3.4-1.201 1.271.607 1.809 2.13 1.201 3.4-2.521 5.275-6.438 8.093-11.639 8.376-.218.011-.435.017-.653.017z" fill="#e43d30"/><g fill="#201747"><path d="m115.833 19.884c-.363 0-.618.113-.828.365-.235.285-.35.651-.35 1.119v3.018c0 .458.109.802.332 1.052.207.231.476.338.845.338h7.096v27.158c0 5.33 1.02 9.128 3.118 11.612 2.023 2.395 5.07 3.558 9.315 3.558h5.755c.938 0 1.177-.779 1.177-1.484v-3.185c0-.775-.309-.861-1.177-.861h-5.163c-2.789 0-4.855-.93-5.816-2.619-1.046-1.837-1.046-4.546-1.046-7.682v-26.497h11.999c.38 0 .668-.114.907-.359.239-.247.356-.584.356-1.031v-3.018c0-.457-.123-.817-.376-1.1-.235-.261-.518-.384-.886-.384h-11.999v-8.183c0-.457-.123-.817-.376-1.1-.236-.262-.518-.385-.887-.385h-3.724c-.361 0-.616.113-.826.366-.237.285-.351.652-.351 1.119v8.183z"/><path d="m65.242 19.865c-.4 0-.708.15-.971.473-.287.352-.426.774-.426 1.292v45.024c0 .51.135.912.413 1.228l.001.001c.262.3.575.439.984.439h3.808c.411 0 .752-.149 1.04-.454.299-.316.444-.713.444-1.214v-27.496c0-2.292.34-5.68 2.115-8.266 2.158-3.145 7.25-5.298 10.234-5.298h4.925c.457 0 .779-.134 1.012-.423.26-.32.386-.728.386-1.245v-2.377c0-.566-.125-.995-.372-1.275-.232-.264-.568-.392-1.027-.392h-3.86c-7.53 0-13.186 5.354-13.186 5.354l-.747-3.498c-.048-.219-.085-.412-.117-.578-.102-.532-.13-.651-.308-.855-.26-.295-.61-.439-1.068-.439h-3.28z"/><path d="m29.862 0c-8.701 0-15.928 3.075-21.482 9.139-5.561 6.071-8.38 14.604-8.38 25.361s2.834 19.281 8.425 25.337c5.584 6.05 12.964 9.117 21.936 9.117 11.149 0 18.834-3.58 23.923-11.181 1.744-2.577 2.47-5.163 2.901-8.211.04-.289-.083-.562-.679-.562h-5.572c-.252.015-.63.112-.825.779-2.626 8.646-9.271 13.028-19.749 13.028-6.547 0-12.006-2.416-16.225-7.182-4.21-4.755-6.345-11.878-6.345-21.171 0-9.292 2.112-16.415 6.276-21.17 4.175-4.767 9.489-7.184 15.796-7.184 10.509.031 17.168 4.43 19.794 13.072.192.66.563.736.825.736h5.846c.285 0 .482-.062.587-.184.111-.129.143-.352.094-.663-1.157-6.025-4.108-10.762-8.77-14.068-4.674-3.313-10.857-4.993-18.376-4.993"/><path d="m176.673 59.341c2.712-2.786 4.161-6.751 4.348-11.895.061-.611.094-1.745.094-3.398 0-1.654-.032-2.786-.094-3.399-.187-5.144-1.637-9.108-4.348-11.895-2.425-2.491-6.568-4.18-10.707-4.18-4.427 0-7.995 1.394-10.707 4.18-2.712 2.787-4.161 6.751-4.348 11.895l-.093 3.399.093 3.398c.188 5.144 1.637 9.109 4.348 11.895 2.712 2.787 6.28 4.179 10.707 4.179 4.426 0 7.995-1.392 10.707-4.179m-25.808 3.674c-3.586-3.888-5.47-8.924-5.657-15.11l-.094-3.858.094-3.858c.187-6.184 2.072-11.221 5.657-15.11 3.584-3.888 8.617-5.833 15.101-5.833 6.211 0 11.788 2.24 15.101 5.833 3.584 3.889 5.47 8.926 5.657 15.11.062.613.094 1.899.094 3.858 0 1.96-.032 3.246-.094 3.858-.187 6.185-2.073 11.222-5.657 15.11-3.585 3.889-8.618 5.833-15.101 5.833-6.484 0-11.517-1.944-15.101-5.833"/><path d="m228.947 24.946c-3.053-3.711-7.247-5.515-12.82-5.515-5.302 0-9.228 1.896-11.915 3.554-2.496 1.54-3.944 2.852-3.944 2.852s-.389-2.692-.694-4.211c-.031-.155-.126-.591-.175-.74-.134-.411-.451-.502-.93-.502h-3.639c-.345 0-.595.1-.808.323-.222.233-.326.523-.326.912v45.197c0 .389.103.679.326.911l.001.001c.212.223.461.322.807.322h4.187c.345 0 .595-.1.808-.323.223-.234.327-.524.327-.911v-25.591c0-4.849 1.28-8.841 3.702-11.545 2.771-3.093 6.228-4.728 9.997-4.728 4.221 0 7.531 1.399 9.837 4.157 2.262 2.71 3.409 6.51 3.409 11.294v26.413c0 .389.103.679.326.911.213.224.462.323.809.323h4.186c.346 0 .595-.1.81-.324.222-.232.325-.522.325-.911v-26.984c0-6.161-1.55-11.169-4.606-14.885"/></g><path d="m104.288 135.8c-3.497-.987-7.782-3.522-10.844-6.583l-32.006-34.226c-1.428-1.427-2.22-3.342-2.22-5.381s.792-3.954 2.23-5.391c3.889-3.889 10.14-4.334 14.54-1.034l15.174 10.348v-50.629c-.001-2.561.998-4.971 2.813-6.785 1.812-1.811 4.217-2.808 6.772-2.808h.007c5.309 0 9.629 4.303 9.631 9.591v23.596c1.23-.557 2.578-.848 3.938-.848h.014c4.6 0 8.557 3.279 9.439 7.723 1.281-.611 2.695-.933 4.125-.936h.001c4.611 0 8.57 3.281 9.449 7.727 1.274-.616 2.687-.939 4.125-.939h.005c2.574 0 4.992.999 6.811 2.812 1.816 1.812 2.817 4.219 2.818 6.778v37.932s.117 1.05-1.051 1.05h-3.557c-1.069 0-1.051-1.051-1.051-1.051l.012-38.044c-.009-2.068-1.816-3.823-3.946-3.829-1.09 0-2.067.4-2.822 1.155-.66.661-1.064 1.537-1.139 2.471v2.415s.029 1.051-1.05 1.051h-3.557c-1.201 0-1.051-1.05-1.051-1.05l-.01-8.886c-.001-2.174-1.77-3.943-3.942-3.943-1.07 0-2.073.411-2.823 1.157-.748.743-1.16 1.733-1.159 2.786l.003 8.885s-.008 1.051-1.051 1.051h-3.557c-1.031 0-1.051-1.051-1.051-1.051l.006-15.672c0-2.173-1.769-3.942-3.942-3.942-2.196.001-3.982 1.769-3.982 3.942l.01 15.622s.064 1.051-1.05 1.051-3.557 0-3.557 0c-1.073 0-1.051-1.05-1.051-1.05l-.001-47.962c-.001-1.055-.411-2.046-1.155-2.79-.745-.744-1.735-1.156-2.789-1.159-2.195.004-3.982 1.775-3.981 3.948v57.046s-1.006 1.38-1.561 2.198-1.464.237-1.464.237l-21.15-14.647c-2.195-1.646-5.284-1.436-7.198.478-.373.372-.578.868-.578 1.395 0 .528.206 1.024.579 1.396l32.007 34.227c1.812 1.808 5.288 4.146 7.218 4.726.696.209.925.494.921 1.059v3.807c-.001 1.21-.891 1.092-1.302.976z" fill="#e43d30"/></svg>