<svg height="42" viewBox="0 0 152 42" width="152" xmlns="http://www.w3.org/2000/svg"><g fill="#00aeef"><path d="m38.285 19.432c-.213 2.452-.631 3.924-1.213 5.464-.617 1.646-1.365 3.192-2.168 4.509l-.045.085c-.261.428-.44.73-.554.874-.017-.019-.04-.043-.062-.06-.093-.1-.241-.261-.463-.487-.324-.327-1.246-1.528-1.504-1.897-.232-.319-.739-1.092-1.004-1.663l-.138-.303-.259.202c-.269.226-.433.605-.424 1.017.007.377.091.806.313 1.579.248.855.671 1.872 1.168 2.796.059.108.121.217.175.319.345.621.483.898.315 1.017-.028.015-.054.015-.071.015-.207 0-.584-.192-1.008-.511-.379-.303-1.401-1.159-2.629-2.872-.931-1.301-1.67-2.562-2.389-4.082l-.108-.223s-.148.055-.295.143c-.105.063-.194.131-.252.248-.134.242-.192.588-.134.967.111.914.644 2.308 1.081 3.316.724 1.704 2.068 3.611 3.068 4.922.038.05.084.1.131.158.051.067.146.178.185.244-.084.084-.289.252-.538.454l-.37.302c-1.344 1.11-2.654 1.999-4.25 2.89-1.255.697-3.792 1.99-5.479 2.436-1.676-.437-4.225-1.731-5.472-2.436-1.609-.9-2.886-1.764-4.25-2.89l-.379-.302c-.246-.202-.452-.37-.534-.454.039-.05.288-.345.325-.386.994-1.311 2.338-3.226 3.068-4.929.433-1.001.98-2.394 1.09-3.318.045-.377 0-.713-.14-.958-.062-.134-.185-.239-.312-.298l-.229-.092-.114.222c-.726 1.52-1.455 2.788-2.389 4.082-1.226 1.721-2.247 2.587-2.627 2.872-.412.312-.798.521-1.004.521-.018 0-.046 0-.063-.017l-.037-.024c-.131-.144.007-.429.34-1.008.059-.1.108-.211.175-.321.508-.922.933-1.938 1.172-2.788.224-.78.315-1.209.315-1.579.01-.41-.151-.787-.423-1.008l-.262-.209-.138.303c-.257.537-.739 1.293-1.004 1.663-.261.369-1.179 1.579-1.508 1.905-.226.22-.366.378-.467.479-.028.016-.045.043-.062.067-.107-.152-.308-.471-.577-.924-.831-1.351-1.574-2.906-2.184-4.539-.599-1.578-1.008-3.044-1.217-5.509-.13-1.474-.222-3.116-.037-5.044.185-1.973.679-3.837 1.394-5.248.995-1.999 2.238-3.178 3.8-3.611.386-.115.995-.245 1.685-.245 1.237 0 2.232.408 2.941 1.209.399.455.556 1.127.399 1.726-.138.542-.518.886-1.022 1.125-.131.064-.278.101-.278.101s.009.072.147.286c.5.803 1.474 1.226 2.799 1.226.322 0 .639-.016.971-.063 1.889-.269 2.751-1.469 3.061-3.77.124-.9.245-1.663-.339-2.594-.407-.658-1.566-1.042-2.415-1.042-.76 0-1.153.193-1.402.452 0-.037-.054-.101-.076-.138-.083-.205-.156-.433-.083-.847.092-.493.489-.953.691-1.118.441-.349.94-.692 1.752-.856.382-.084.789-.155 1.237-.155.1 0 .417-.013.563.009.064 0 .071-.03.118-.086.286-.343.722-.529 1.517-.508.605.01 1.426.038 2.064.249.57.185.858.353 1.188.562.387.254.794.758.958 1.256.261.749.407 1.634.444 2.701.039 2.134.341 3.36.937 4.125.963 1.246 1.781 1.418 2.781 1.418h.108c1.881 0 2.562-.449 2.868-.903 0 0 .168-.091.231-.222-.24-.043-.386-.11-.386-.11-.478-.183-.824-.579-.958-1.096-.168-.608-.021-1.31.386-1.78.881-1.032 2.214-1.28 2.923-1.28h.084c.554 0 1.088.148 1.603.312.698.223 1.302.6 1.799.999.963.782 1.587 1.844 2.01 2.678.701 1.377 1.227 3.344 1.391 5.25.195 1.948.105 3.57-.026 5.048z"/><g transform="translate(48 10)"><path d="m.901 18.183v-16.43h9.055l-.414 1.194h-7.196v5.954h6.312l-.414 1.163h-5.885v6.908h7.747v1.21h-9.205z"/><path d="m20.331 18.324c-.229-.369-.531-1.125-.61-1.821-1.299 1.284-2.581 1.956-4.12 1.956-2.21 0-3.42-1.327-3.42-3.191 0-2.002 1.466-3.393 4.371-3.955l3.099-.609v-.563c0-2.26-.948-2.936-2.767-2.936-1.235 0-2.444.562-3.546 1.348l-.604-1.002c.93-.677 2.491-1.471 4.326-1.471 2.259 0 3.91.86 3.91 3.93v5.52c0 .897.256 1.828.61 2.409zm-.672-6.588-2.674.533c-2.49.492-3.378 1.587-3.378 3.027 0 1.298.795 2.07 2.213 2.07 1.258 0 2.568-.807 3.839-2.07z"/><path d="m28.873 23.297c-1.347 0-2.797-.303-4.001-.79l-.097-1.377c1.239.672 2.795 1.008 4.005 1.008 2.415 0 3.77-1.395 3.77-4.31v-1.09c-.903.807-1.926 1.586-3.77 1.586-3.165 0-4.815-2.493-4.815-5.992 0-4.028 2.37-6.232 5.633-6.232 1.352 0 2.329.278 3.12.581l1.161-.302v11.073c0 3.997-1.815 5.845-5.006 5.845zm3.677-15.444c-.701-.302-1.725-.61-2.751-.61-2.883 0-4.412 1.559-4.412 4.981 0 3.396 1.344 4.951 3.603 4.951 2.049 0 3.561-1.555 3.561-2.768v-6.554z"/><path d="m37.466 18.183v-17.34l1.325-.37v17.709h-1.325z"/><path d="m43.15 12.27c-.033.213-.033.348-.033.516 0 2.718 1.377 4.523 4.005 4.523.975 0 2.169-.421 3.117-1.025l.578 1.025c-1.116.714-2.225 1.158-3.811 1.158-3.707 0-5.308-2.722-5.308-5.866 0-3.833 2.071-6.491 5.214-6.491 2.949 0 4.259 2.188 4.259 4.904v1.256zm6.719-1.211c0-2.366-1.026-3.833-3.023-3.833-2.09 0-3.325 1.881-3.635 3.986h6.658z"/><path d="m59.947 18.183v-16.43h1.445v15.177h7.741v1.252h-9.186z"/><path d="m79.029 18.324c-.229-.369-.53-1.125-.605-1.821-1.303 1.284-2.586 1.956-4.124 1.956-2.21 0-3.419-1.327-3.419-3.191 0-2.002 1.463-3.393 4.367-3.955l3.102-.609v-.563c0-2.26-.952-2.936-2.766-2.936-1.232 0-2.441.562-3.543 1.348l-.604-1.002c.922-.677 2.486-1.471 4.326-1.471 2.259 0 3.904.86 3.904 3.93v5.52c0 .897.262 1.828.612 2.409zm-.672-6.588-2.673.533c-2.493.492-3.374 1.587-3.374 3.027 0 1.298.787 2.07 2.209 2.07 1.258 0 2.568-.807 3.838-2.07z"/><path d="m87.629 18.324c-1.235 0-2.217-.142-3.076-.47l-1.231.328v-17.34l1.325-.37v7.26c1.194-1.146 2.37-1.633 3.837-1.633 3.144 0 4.771 2.445 4.771 5.976-.001 3.924-2.341 6.249-5.626 6.249zm.698-11.098c-1.538 0-2.747.903-3.681 1.881v7.605c.698.286 1.639.463 2.628.463 2.841 0 4.568-1.739 4.568-4.951.001-3.184-1.309-4.998-3.515-4.998z"/><path d="m99.219 18.467c-1.235 0-2.352-.184-3.748-.721l.422-1.143c1.023.444 2.165.764 3.341.764 1.96 0 3.009-.715 3.009-2.163 0-1.546-1.479-2.05-2.855-2.61-2.93-1.189-3.681-1.912-3.681-3.632 0-1.773 1.538-2.861 3.998-2.861 1.288 0 2.587.278 3.505.749l-.448 1.096c-.907-.446-1.881-.764-3.057-.764-1.882 0-2.62.81-2.62 1.834 0 1.143.885 1.559 2.788 2.322 2.034.813 3.729 1.559 3.729 3.699-.008 2.498-2.032 3.43-4.383 3.43z"/></g></g></svg>