<svg height="117" viewBox="0 0 493 117" width="493" xmlns="http://www.w3.org/2000/svg"><g fill="#110b0d"><path d="m233.44 2.75v9.75 14h-8.53c-.29-4.33-.78-6.8-1.59-8.82-.724519-1.9428968-2.28554-3.4561683-4.25-4.12-2.141478-.6444918-4.363721-.9811954-6.6-1h-212.47v-9.81zm-233.44 35.59h205.8c1.566211-.0054859 2.834514-1.2737893 2.84-2.84v-4.07c-.005486-1.5662107-1.273789-2.8345141-2.84-2.84h-205.8zm233.42 2h-8.53c-.29 4.33-.78 6.93-1.59 9-.724519 1.9428968-2.28554 3.4561683-4.25 4.12-2.941194.83254-5.995749 1.1936863-9.05 1.07h-210v9.75l210.05.11c4.1 0 7.15.23 9.15.93 1.952632.5460216 3.559087 1.9360819 4.38 3.79.93 2.05 1.1 4.93 1.33 9.27h8.53v-14.1-9.75zm0 51.84h-8.53c-.29 4.33-.78 7-1.59 9-.724519 1.942897-2.28554 3.456168-4.25 4.12-1.994086.615304-4.063698.951827-6.15 1h-212.9v9.75h233.44v-9.75zm-233.42-2h205.8c1.566211-.0054859 2.834514-1.2737893 2.84-2.84v-4.07c-.005486-1.5662107-1.273789-2.8345141-2.84-2.84h-205.8z"/><path d="m259.14 27.38 1.46-.3c1-.23 1.39-.41 1.39-2.48v-17.74c0-2.1-.34-2.29-1.39-2.51l-1.46-.3v-1.31h20.52l.45 7.13h-1.5c-.53638-1.3279046-1.206499-2.59777928-2-3.79-1.16-1.5-2-1.5-5-1.5-1.395033-.04318843-2.790493.07086358-4.16.34v9.38h1.13c2.85 0 3.67-.19 4.24-1.12.454679-.8114446.791397-1.6835454 1-2.59h1.5v9.41h-1.5c-.241643-.908839-.576764-1.7902076-1-2.63-.52-1.05-1.12-1.12-4.24-1.12h-1.08v7c0 3.71.11 3.68 4.5 3.68 3.34 0 3.9-.11 5.06-1.61.978515-1.5432117 1.783405-3.1898824 2.4-4.91h1.54l-.56 8.4h-21.3z"/><path d="m283.44 19.69c0-7.54 5.18-10.76 10.91-10.76 1.11191-.01870551 2.221443.10905896 3.3.38 0 0-.15-1.39-.15-2.74v-1.69c0-1.65-.23-1.73-1.16-2.21l-1.58-.79v-1.21l7.5-.67.45.38c-.193648 1.42820968-.280556 2.86886851-.26 4.31v19.39c0 1.76.19 2 1.2 2.4l1.24.56v1.2l-7 .94-.34-.26.19-2.06h-.15c-1.887638 1.4745404-4.204995 2.2926376-6.6 2.33-3.69-.01-7.55-2.52-7.55-9.5zm14.07 5.44v-12.87c-.857847-.9686843-2.086124-1.5283133-3.38-1.54-3.38 0-5.55 2-5.55 8 0 5.48 1.8 7.46 5.1 7.46 1.344097-.0037292 2.662831-.3662085 3.82-1.05z"/><path d="m306.42 27.42 1.31-.34c1-.26 1.2-.49 1.2-2.06v-11.14c0-1.58-.19-1.65-1.2-2.25l-1.35-.79v-1.09l7.31-.83.49.3c-.199994 1.605577-.300186 3.2220151-.3 4.84v10.94c0 1.65.19 1.84 1.2 2.06l1.28.34v1.31h-9.94zm1.73-24.19c.093005-1.63023778 1.442111-2.90457195 3.075-2.90457195s2.981995 1.27433417 3.075 2.90457195c-.093005 1.63023778-1.442111 2.90457195-3.075 2.90457195s-2.981995-1.27433417-3.075-2.90457195z"/><path d="m317.86 27.42 1.31-.34c1-.26 1.2-.49 1.2-2.06v-11.14c0-1.58-.19-1.65-1.2-2.25l-1.35-.79v-1.09l7-.83.45.3-.22 2.18h.15c2.163952-1.47974638 4.692359-2.33753703 7.31-2.48 3.53 0 5.1 1.61 5.1 5v11.08c0 1.58.22 1.84 1.2 2.06l1.24.34v1.31h-9.75v-1.29l1.24-.3c.94-.26 1.09-.41 1.09-2.1v-9.72c0-2.48-.83-3.34-3-3.34-1.486231.085504-2.951857.3887371-4.35.9v12.14c0 1.73.15 1.84 1.09 2.1l1.27.3v1.31h-9.83z"/><path d="m343.4 27.42v-22.54c0-1.65-.19-1.8-1.12-2.29l-1.5-.71v-1.21l7.42-.67.45.38c-.221697 1.42559851-.322057 2.86743481-.3 4.31v3.19c-.000357 1.12932531-.06379 2.2577493-.19 3.38h.19c1.876762-1.46636323 4.178753-2.28399112 6.56-2.33 3.64 0 7.54 2.18 7.54 9.19 0 7.46-4.69 11.06-11.1 11.06-2.760202.1406965-5.507102-.4674222-7.95-1.76zm14-8.29c0-5.1-2-7.31-4.8-7.31-1.466357-.0701254-2.922579.2765943-4.2 1v13.28c.94623.8441714 2.182874 1.2886463 3.45 1.24 3.62 0 5.5-1.84 5.5-8.21z"/><path d="m366.95 24.23v-10.65c0-1.46-.11-1.58-1.09-2.06l-1.46-.71v-1.13l6.9-.75.6.41v13.66c0 2.18.94 3.15 2.92 3.15 1.532654-.1068963 3.033405-.4897063 4.43-1.13v-11.44c0-1.46-.11-1.58-1.12-2.06l-1.39-.71v-1.13l6.9-.75.56.41v14.74c0 1.76.15 2 1.2 2.4l1.24.56v1.2l-6.86.94-.49-.34.22-2.36h-.15c-2.122654 1.618803-4.684194 2.5597771-7.35 2.7-3.11 0-5.06-1.69-5.06-4.95z"/><path d="m388.17 27.42 1.31-.34c1-.26 1.2-.49 1.2-2.06v-11.14c0-1.58-.19-1.65-1.2-2.25l-1.35-.79v-1.09l7-.83.45.34-.22 2.36h.15c1.487067-1.5761844 3.501273-2.55125963 5.66-2.74.714446-.09556642 1.433863.13641489 1.957901.63133972.524038.49492478.796717 1.19992298.742099 1.91866028.091709.6598105-.112347 1.3264725-.557661 1.8219079-.445313.4954354-1.086519.7691729-1.752339.7480921-1.58 0-2-.37-2.59-1.39-.163232-.386788-.550677-.6304385-.97-.61-.922127.1862391-1.761991.6586621-2.4 1.35v11.65c0 1.69.19 1.91 1.13 2.06l1.61.34v1.31h-10.2z"/><path d="m404.07 32.85c0-1.91 1.69-3.41 4.43-4.35v-.15c-1.59496-.3043782-2.763697-1.6769167-2.81-3.3 0-2.21 1.76-3.56 3-4.43v-.15c-1.929437-.9223992-3.166611-2.8615423-3.19-5 0-4.35 3.86-6.6 8-6.6 1.495011-.0422513 2.984524.19864941 4.39.71 1.319475-1.37065324 3.101811-2.20122166 5-2.33 1.28 0 2.21.64 2.21 1.91 0 1.09-.56 2.1-1.76 2.1-.820016.0571571-1.58031-.4307322-1.87-1.2-.26-.52-1.46-.11-2.48.49v.11c1.622993.8569067 2.624836 2.555012 2.59 4.39 0 4.35-3.9 6.49-8 6.49-1.118153.0504887-2.233093-.1547151-3.26-.6-.639317.4379441-1.049961 1.1382385-1.12 1.91 0 .86.64 1.61 2.17 1.61h6.26c3.45 0 5.93 1.16 5.93 5 0 3.49-3 7.76-10.88 7.76-5.46.02-8.61-1.66-8.61-4.37zm15.93-1.46c0-1.69-.75-2.7-3.34-2.7h-6c-1.4641.5807087-2.458729 1.9575872-2.55 3.53 0 2.06 1.54 3.23 5.18 3.23 4.17-.01 6.71-1.88 6.71-4.06zm-3.34-15.9c0-3.6-1.09-4.91-3.23-4.91s-3.19 1.24-3.19 4.54c0 3.6 1.13 4.8 3.19 4.8s3.24-1.13 3.24-4.43z"/><path d="m425.29 27.42 1.31-.34c1-.26 1.2-.49 1.2-2.06v-20.14c0-1.65-.19-1.8-1.16-2.29l-1.54-.71v-1.21l7.47-.67.49.38c-.207027 1.4272088-.307305 2.86787244-.3 4.31v3.19c-.00328 1.16582649-.066698 2.3307077-.19 3.49h.15c2.149935-1.47973694 4.672574-2.32523702 7.28-2.44 3.53 0 5.1 1.61 5.1 5v11.07c0 1.58.22 1.84 1.2 2.06l1.24.34v1.31h-9.75v-1.29l1.24-.3c.94-.26 1.09-.41 1.09-2.1v-9.72c0-2.48-.83-3.34-3-3.34-1.486231.085504-2.951857.3887371-4.35.9v12.14c0 1.73.15 1.84 1.09 2.1l1.27.3v1.31h-9.83z"/><path d="m259.14 71.21 1.61-.3c1.09-.23 1.35-.41 1.35-2.48v-17.73c0-2.1-.26-2.29-1.35-2.51l-1.61-.3v-1.32h11.55v1.31l-1.65.3c-1.16.23-1.39.41-1.39 2.51v17.75c0 2.06.22 2.25 1.39 2.48l1.65.3v1.35h-11.55z"/><path d="m272.52 71.25 1.31-.34c1-.26 1.2-.49 1.2-2.06v-11.14c0-1.58-.19-1.65-1.2-2.25l-1.35-.79v-1.09l7-.83.45.3-.22 2.18h.15c2.163952-1.4797464 4.692359-2.337537 7.31-2.48 3.53 0 5.1 1.61 5.1 5v11.1c0 1.58.22 1.84 1.2 2.06l1.24.34v1.31h-9.71v-1.31l1.24-.3c.94-.26 1.09-.41 1.09-2.1v-9.72c0-2.48-.83-3.34-3-3.34-1.486231.085504-2.951857.3887371-4.35.9v12.16c0 1.73.15 1.84 1.09 2.1l1.27.3v1.31h-9.83z"/><path d="m298.32 68.44v-12.83h-2.51v-1.2c2.81-.9 4.35-2.89 5.4-6h2.1v4.88h5.29l-.6 2.32h-4.73v12.26c0 1.76.71 2.48 2.55 2.48.964401-.0372994 1.921024-.1883452 2.85-.45v1.35c-.79.82-2.62 1.76-5.51 1.76s-4.84-1.31-4.84-4.57z"/><path d="m310 62.77c-.11799-2.6354905.851524-5.2037912 2.681659-7.1038799s4.36028-2.965214 6.998341-2.9461201c5.06 0 8.14 2.63 8.21 9.68h-12.89c.19 5.63 2.7 7.69 6.53 7.69 2.044301-.0064911 4.054803-.5220043 5.85-1.5v1.61c-2.145346 1.8442742-4.891176 2.8401711-7.72 2.8-6.49 0-9.66-4-9.66-10.23zm5-2.13 7.65-.37c0-4.39-.64-5.81-3.26-5.81-2.28-.01-4.12 1.75-4.39 6.18z"/><path d="m329.86 71.25 1.31-.34c1-.26 1.2-.49 1.2-2.06v-11.14c0-1.58-.19-1.65-1.2-2.25l-1.35-.79v-1.09l7-.83.45.34-.22 2.36h.15c1.487067-1.5761844 3.501273-2.5512596 5.66-2.74.714446-.0955664 1.433863.1364149 1.957901.6313397s.796717 1.199923.742099 1.9186603c.073226.6537657-.142043 1.3069902-.589607 1.7891296s-1.082994.7453346-1.740393.7208704c-1.58 0-2-.37-2.59-1.39-.174366-.3567339-.543276-.5765097-.94-.56-.922127.1862391-1.761991.6586621-2.4 1.35v11.68c0 1.69.19 1.91 1.13 2.06l1.61.34v1.31h-10.2z"/><path d="m347 71.25 1.31-.34c1-.26 1.2-.49 1.2-2.06v-11.14c0-1.58-.19-1.65-1.2-2.25l-1.31-.79v-1.09l7-.83.45.3-.22 2.18h.15c2.163952-1.4797464 4.692359-2.337537 7.31-2.48 3.53 0 5.1 1.61 5.1 5v11.1c0 1.58.22 1.84 1.2 2.06l1.24.34v1.31h-9.75v-1.31l1.24-.3c.94-.26 1.09-.41 1.09-2.1v-9.72c0-2.48-.83-3.34-3-3.34-1.486231.085504-2.951857.3887371-4.35.9v12.16c0 1.73.15 1.84 1.09 2.1l1.27.3v1.31h-9.82z"/><path d="m370.92 68c0-3.19 2.06-4.84 7.31-6.08l3.64-.83v-3.09c0-2.81-.49-3.64-3.19-3.64-1.43 0-1.61.3-1.76 1.43-.19 2-.86 3-2.74 3-1.61 0-2.29-.86-2.29-2.14 0-2.51 3.56-3.9 7.84-3.9 4.65 0 7.09 1.54 7.09 5v10.5c0 1.2.19 1.76 1 2.14.562327.2647958 1.178625.3949032 1.8.38v1.2c-1.179289.7158468-2.541142 1.0736807-3.92 1.03-2.06 0-3.26-.9-3.6-2.25h-.19c-1.296616 1.5135144-3.219237 2.343821-5.21 2.25-3.57 0-5.78-1.79-5.78-5zm11 1v-5.78l-2.33.23c-2.48.22-3.71 1.2-3.71 4 0 2.29 1.2 3 3 3 1.167804.0855557 2.297457-.4358229 2.99-1.38z"/><path d="m393 68.44v-12.83h-2.51v-1.2c2.81-.9 4.35-2.89 5.4-6h2.11v4.88h5.29l-.56 2.36h-4.73v12.22c0 1.76.71 2.48 2.55 2.48.964401-.0372994 1.921024-.1883452 2.85-.45v1.35c-.79.82-2.62 1.76-5.51 1.76s-4.89-1.31-4.89-4.57z"/><path d="m404.67 71.25 1.31-.34c1-.26 1.2-.49 1.2-2.06v-11.14c0-1.58-.19-1.65-1.2-2.25l-1.35-.79v-1.09l7.31-.83.49.3c-.199994 1.605577-.300186 3.2220151-.3 4.84v11c0 1.65.19 1.84 1.2 2.06l1.28.34v1.31h-9.94zm1.73-24.19c-.077628-1.2573825.618301-2.4352886 1.757089-2.9739894s2.490843-.3295883 3.413682.5279694c.922839.8575578 1.230407 2.1906675.776552 3.3658494s-1.577632 1.955506-2.837323 1.9701706c-.795794.0297148-1.570749-.2581936-2.154108-.8002855-.583358-.5420919-.927247-1.2938815-.955892-2.0897145z"/><path d="m416.45 62.92c0-6.86 4.91-10.2 10-10.2 5.44 0 9.94 3.26 9.94 10s-4.83 10.28-9.93 10.28c-5.51 0-10.01-3.33-10.01-10.08zm14.66.11c0-6.68-1.65-8.55-4.84-8.55-2.89 0-4.5 2-4.5 8 0 6.75 1.54 8.78 4.8 8.78 2.85-.01 4.54-1.92 4.54-8.26z"/><path d="m438.38 71.25 1.31-.34c1-.26 1.2-.49 1.2-2.06v-11.14c0-1.58-.19-1.65-1.2-2.25l-1.35-.79v-1.09l7-.83.45.3-.22 2.18h.15c2.156404-1.4710314 4.673659-2.3251001 7.28-2.47 3.53 0 5.1 1.61 5.1 5v11.1c0 1.58.22 1.84 1.2 2.06l1.24.34v1.31h-9.75v-1.32l1.24-.3c.94-.26 1.09-.41 1.09-2.1v-9.72c0-2.48-.83-3.34-3-3.34-1.486231.085504-2.951857.3887371-4.35.9v12.16c0 1.73.15 1.84 1.09 2.1l1.27.3v1.31h-9.83z"/><path d="m462.31 68c0-3.19 2.06-4.84 7.31-6.08l3.64-.83v-3.09c0-2.81-.49-3.64-3.19-3.64-1.43 0-1.61.3-1.76 1.43-.19 2-.86 3-2.74 3-1.61 0-2.29-.86-2.29-2.14 0-2.51 3.56-3.9 7.84-3.9 4.65 0 7.09 1.54 7.09 5v10.5c0 1.2.19 1.76 1 2.14.562327.2647958 1.178625.3949032 1.8.38v1.2c-1.167099.7331507-2.521902 1.1118008-3.9 1.09-2.06 0-3.26-.9-3.6-2.25h-.19c-1.314909 1.4998069-3.248905 2.3080992-5.24 2.19-3.56 0-5.77-1.79-5.77-5zm11 1v-5.78l-2.33.23c-2.48.22-3.71 1.2-3.71 4 0 2.29 1.2 3 3 3 1.167804.0855557 2.297457-.4358229 2.99-1.38z"/><path d="m482.33 71.25 1.31-.34c1.05-.26 1.24-.49 1.24-2.06v-20.14c0-1.65-.19-1.8-1.2-2.29l-1.54-.71v-1.2l7.5-.67.49.38c-.207027 1.4272088-.307305 2.8678724-.3 4.31v20.32c0 1.65.19 1.8 1.2 2.06l1.31.34v1.31h-10z"/><path d="m259.14 114.88 1.46-.3c1-.23 1.39-.41 1.39-2.48v-17.74c0-2.1-.34-2.29-1.39-2.51l-1.46-.3v-1.31h11.33c6.3 0 9.79 1.8 9.79 6.15 0 3.41-2.4 5.25-6.75 5.93v.19c5.25.52 8.06 2.44 8.06 6.41 0 4.76-3.75 7.31-10.09 7.31h-12.34zm11-13.13c3.23 0 4.69-1.46 4.69-4.69 0-4.13-1.5-5-4.73-5-.878433-.0013442-1.755237.0756272-2.62.23v9.45zm5.63 7.43c0-4.13-1.46-5.55-5.25-5.55h-3v8.1c0 2.33.41 2.66 3.41 2.66s4.82-1.16 4.82-5.21z"/><path d="m284.34 106.59c0-6.86 4.91-10.2 10-10.2 5.44 0 9.94 3.26 9.94 10s-4.84 10.28-9.94 10.28c-5.5.01-10-3.33-10-10.08zm14.66.11c0-6.68-1.65-8.55-4.84-8.55-2.89 0-4.5 2-4.5 8 0 6.75 1.54 8.78 4.8 8.78 2.85-.01 4.54-1.93 4.54-8.23z"/><path d="m306.8 106.59c0-6.86 4.91-10.2 10-10.2 5.44 0 9.94 3.26 9.94 10s-4.84 10.28-9.94 10.28c-5.5.01-10-3.33-10-10.08zm14.66.11c0-6.68-1.65-8.55-4.84-8.55-2.89 0-4.5 2-4.5 8 0 6.75 1.54 8.78 4.8 8.78 2.85-.01 4.54-1.93 4.54-8.23z"/><path d="m328.73 114.92 1.31-.34c1-.26 1.2-.49 1.2-2.06v-20.15c0-1.65-.19-1.8-1.16-2.29l-1.54-.71v-1.2l7.46-.67.49.38c-.207027 1.4272088-.307305 2.8678724-.3 4.31v20.33c0 1.69.19 1.84 1.09 2.1l1.24.3v1.31h-9.79zm8.06-8v-.75l3.83-4c1.46-1.61 2-2.25 2-2.81s-.37-.82-1.09-1l-.56-.15v-1.3h7.84v1.31l-1 .3c-1.378544.4161572-2.605472 1.2259994-3.53 2.33l-3.53 3.64c1.912666 3.262503 4.107741 6.350999 6.56 9.23.300184.405143.719883.705927 1.2.86l1.09.34v1.31h-6.11c-2.468037-2.935754-4.70474-6.058445-6.69-9.34z"/><path d="m361.12 114.87 1.46-.3c1-.23 1.39-.41 1.39-2.48v-17.73c0-2.1-.34-2.29-1.39-2.51l-1.46-.3v-1.32h20.29l.38 7.39h-1.54c-.485326-1.4433032-1.179353-2.8077735-2.06-4.05-1.13-1.46-1.76-1.5-4.88-1.5-1.283493-.0285666-2.566608.0719384-3.83.3v9.83h.52c3.26 0 3.9-.26 4.39-1.09.580191-.849027.987913-1.8037761 1.2-2.81h1.42v9.94h-1.42c-.261899-1.08133-.6796-2.118845-1.24-3.08-.53-.94-1-1-4.35-1h-.56v8c0 2.06.19 2.21 1.43 2.44l2 .34v1.35h-11.75z"/><path d="m380.61 106.43c-.11799-2.635491.851524-5.203791 2.681659-7.1038799 1.830135-1.9000887 4.36028-2.965214 6.998341-2.9461201 5.06 0 8.14 2.63 8.21 9.68h-12.87c.19 5.63 2.7 7.69 6.53 7.69 2.044301-.006491 4.054803-.522004 5.85-1.5v1.61c-2.146487 1.850186-4.89645 2.849849-7.73 2.81-6.49 0-9.67-4.01-9.67-10.24zm5.06-2.14 7.65-.38c0-4.39-.64-5.81-3.26-5.81-2.33.01-4.17 1.77-4.39 6.19z"/><path d="m401.12 115.92-.26-5.7h1.35c.491764 1.209148 1.166292 2.335609 2 3.34.85149.95676 2.103678 1.456894 3.38 1.35 2.14 0 3.53-1 3.53-2.78s-1.35-2.59-4.58-3.83-5.55-2.93-5.55-6c0-3.53 3-6 7.61-6 1.739116-.0584654 3.475917.171306 5.14.68l.15 5.06h-1.27c-.580966-1.054555-1.250013-2.058126-2-3-.651193-.7024566-1.598677-1.0517252-2.55-.94-2.14 0-3.3.94-3.3 2.7 0 1.35 1.13 2.21 4.28 3.38 4 1.46 6.15 3.08 6.15 6 0 3.75-3 6.49-8.14 6.49-2.004683.017656-4.002621-.234609-5.94-.75z"/><path d="m419.15 112.1v-12.83h-2.51v-1.2c2.81-.9 4.35-2.89 5.4-6h2.1v4.88h5.29l-.56 2.36h-4.73v12.26c0 1.76.71 2.48 2.55 2.48.964401-.037299 1.921024-.188345 2.85-.45v1.35c-.79.82-2.62 1.76-5.51 1.76s-4.88-1.35-4.88-4.61z"/><path d="m430.85 114.91 1.31-.34c1-.26 1.2-.49 1.2-2.06v-11.14c0-1.58-.19-1.65-1.2-2.25l-1.35-.79v-1.09l7.31-.83.49.3c-.199917 1.6055842-.300109 3.2220175-.3 4.84v11c0 1.65.19 1.84 1.2 2.06l1.28.34v1.31h-9.94zm1.73-24.19c-.077628-1.2573825.618301-2.4352886 1.757089-2.9739894s2.490843-.3295883 3.413682.5279694c.922839.8575578 1.230407 2.1906675.776552 3.3658494s-1.577632 1.955506-2.837323 1.9701706c-.795794.0297148-1.570749-.2581936-2.154108-.8002855-.583358-.5420919-.927247-1.2938815-.955892-2.0897145z"/><path d="m443.75 101.22c-.79-1.88-1.09-2.4-2.18-2.74l-.83-.26v-1.31h10v1.31l-1 .26c-.9.23-1.12.6-1.12 1.35.075009.688433.250193 1.362215.52 2l3.45 9.3h.15l3.26-9.3c.266333-.655994.418526-1.352702.45-2.06.030599-.3079423-.063115-.6153454-.2603-.8538462-.197186-.2385007-.481495-.3883251-.7897-.4161538l-1-.26v-1.33h7.16v1.31l-.9.26c-1 .26-1.31 1-2.14 3.11l-5.7 14.63h-2.92z"/><path d="m462.09 111.68c0-3.19 2.06-4.84 7.31-6.08l3.64-.83v-3.11c0-2.81-.49-3.64-3.19-3.64-1.43 0-1.61.3-1.76 1.43-.19 2-.86 3-2.74 3-1.61 0-2.29-.86-2.29-2.14 0-2.51 3.56-3.9 7.84-3.9 4.65 0 7.09 1.54 7.09 5v10.5c0 1.2.19 1.76 1 2.14.562327.264796 1.178625.394903 1.8.38v1.2c-1.167099.733151-2.521902 1.111801-3.9 1.09-2.06 0-3.26-.9-3.6-2.25h-.19c-1.296616 1.513514-3.219237 2.343821-5.21 2.25-3.59-.05-5.8-1.85-5.8-5.04zm11 1v-5.85l-2.33.23c-2.48.22-3.71 1.2-3.71 4 0 2.29 1.2 3 3 3 1.144792.083029 2.2542-.417145 2.95-1.33z"/><path d="m482.11 114.91 1.31-.34c1.05-.26 1.24-.49 1.24-2.06v-20.14c0-1.65-.19-1.8-1.2-2.29l-1.54-.71v-1.2l7.5-.67.49.38c-.207027 1.4272088-.307305 2.8678724-.3 4.31v20.33c0 1.65.19 1.8 1.2 2.06l1.31.34v1.31h-10z"/></g></svg>