<svg width="579" height="798" viewBox="0 0 579 798" xmlns="http://www.w3.org/2000/svg"><title>channel4</title><path d="M148.246 733.194h64.74v64.774h-64.74v-64.774zm212.985 64.774h162.32v-64.774H361.23v64.774zM0 534.18h319.01v-64.774H0v64.774zm255.208 263.788h64.74V576.423h-64.74v221.545zm-42.222-500.353V194.353L24.395 428.101H107.9l105.086-130.486zM370.614.032l-9.383 12.204v103.262l60.05-74.16L370.613.031zm97.58 469.374v64.774h110.714v-64.774H468.193zm-42.222-368.928l-64.74 79.794V690.95h64.74V100.478zM255.208 428.101h64.74V62.928l-64.74 79.794v285.38z" fill-rule="nonzero" fill="#CCC"/></svg>