<svg width="158" height="191" viewBox="0 0 158 191" xmlns="http://www.w3.org/2000/svg"><g fill-rule="nonzero" fill="none"><path d="M155.521 23.19L133.987 2.13a6.585 6.585 0 0 0-4.601-1.876H7.08A6.585 6.585 0 0 0 .497 6.84v177.32a6.585 6.585 0 0 0 6.583 6.586h143.843a6.585 6.585 0 0 0 6.583-6.586V27.9a6.602 6.602 0 0 0-1.985-4.71zM13.661 177.574V13.426h109.144v14.473a6.585 6.585 0 0 0 6.584 6.586h14.95v143.089H13.66z" fill="#C5F1FF"/><path d="M126.755 51.91H66.09a3.818 3.818 0 0 1-3.818-3.82c0-2.112 1.708-3.82 3.818-3.82h60.665a3.82 3.82 0 1 1 0 7.64zM126.755 84.122H66.09a3.818 3.818 0 0 1-3.818-3.82c0-2.11 1.708-3.82 3.818-3.82h60.665a3.82 3.82 0 1 1 0 7.64z" fill="#FFF"/><path d="M126.755 116.339H66.09a3.818 3.818 0 0 1-3.818-3.82c0-2.111 1.708-3.82 3.818-3.82h60.665a3.82 3.82 0 1 1 0 7.64zM126.755 148.552H66.09a3.818 3.818 0 0 1-3.818-3.82c0-2.111 1.708-3.82 3.818-3.82h60.665a3.82 3.82 0 1 1 0 7.64z" fill="#C5F1FF"/><path d="M38.634 54.91a3.324 3.324 0 0 1-2.36-.979l-7.87-7.874a3.34 3.34 0 0 1 0-4.722 3.337 3.337 0 0 1 4.72 0l5.51 5.513 12.044-12.24a3.337 3.337 0 0 1 4.72 0 3.34 3.34 0 0 1 0 4.722L40.995 53.93a3.318 3.318 0 0 1-2.36.978zM38.634 87.122a3.324 3.324 0 0 1-2.36-.978l-7.87-7.874a3.34 3.34 0 0 1 0-4.722 3.337 3.337 0 0 1 4.72 0l5.51 5.513 12.044-12.24a3.337 3.337 0 0 1 4.72 0 3.34 3.34 0 0 1 0 4.722L40.995 86.144a3.318 3.318 0 0 1-2.36.978zM41.903 125.158c-6.969 0-12.637-5.671-12.637-12.643 0-6.971 5.668-12.642 12.637-12.642 6.968 0 12.637 5.671 12.637 12.642 0 6.972-5.669 12.643-12.637 12.643zm0-21.498c-4.882 0-8.851 3.972-8.851 8.855 0 4.884 3.97 8.856 8.85 8.856 4.882 0 8.852-3.972 8.852-8.856 0-4.88-3.97-8.855-8.851-8.855zM41.903 157.374c-6.969 0-12.637-5.67-12.637-12.642 0-6.972 5.668-12.642 12.637-12.642 6.968 0 12.637 5.67 12.637 12.642 0 6.971-5.669 12.642-12.637 12.642zm0-21.497c-4.882 0-8.851 3.971-8.851 8.855s3.97 8.855 8.85 8.855c4.882 0 8.852-3.971 8.852-8.855s-3.97-8.855-8.851-8.855z" fill="#46C8F3"/></g></svg>