<svg width="798" height="796" viewBox="0 0 798 796" xmlns="http://www.w3.org/2000/svg"><title>fanduel</title><g fill-rule="nonzero" fill="#CCC"><path d="M402.876 795.304c235.295-137.772 395.032-394.58 395.032-684.755 0-2.35-1.247-4.542-3.28-5.713-97.43-55.932-211.657-92.76-331.599-102.25a6.869 6.869 0 0 0-5.993 2.675 726.73 726.73 0 0 0-80.267 132.466c-.74 1.581.452 3.385 2.197 3.33a658.138 658.138 0 0 1 20.294-.311c89.51 0 174.83 17.92 252.587 50.355-22.81 177.93-116.84 333.577-252.587 437.45a660.877 660.877 0 0 1-77.663-69.848c-1.573-1.659-4.357-.308-3.996 1.952 13.234 83.246 40.601 161.777 79.562 233.067 1.107 2.034 3.71 2.753 5.713 1.582z"/><path d="M261.773 485.89a656.932 656.932 0 0 1-43.313-70.035 418.73 418.73 0 0 1 40.47-16.687 6.668 6.668 0 0 0 4.452-5.853c3.3-49.46 11.245-97.65 23.412-144.135.425-1.623-1.003-3.128-2.644-2.789a559.085 559.085 0 0 0-118.314 38.743 653.405 653.405 0 0 1-19.164-94.029c54.02-22.536 111.702-38.056 171.892-45.433a6.135 6.135 0 0 0 4.904-3.692c20.935-49.026 45.744-92.886 76.863-138.477.976-1.433-.05-3.399-1.78-3.39C250.906.805 120.71 38.663 4.127 104.71c-2.179 1.234-3.512 3.58-3.512 6.083 0 250.012 124.624 486.134 315.123 631.001 1.853 1.41 4.366-.547 3.485-2.698-31.928-77.835-51.526-162.03-56.389-250.151a5.842 5.842 0 0 0-1.062-3.056z"/></g></svg>