<svg width="1321" height="800" viewBox="0 0 1321 800" xmlns="http://www.w3.org/2000/svg"><title>sky</title><path d="M575.848 573.739c0 41.709-16.337 65.385-97.38 65.385-10.654 0-19.913-.64-29.136-1.92V85.599C449.332 43.74 463.524 0 545.282 0c10.69 0 20.628.94 30.566 3.2v570.539zM402.393 490.21c0 77.543-50.478 134.27-152.864 145.374-74.644 8.019-182.714-1.355-233.87-7.19-2.146-8.393-3.576-18.821-3.576-27.215 0-67.755 36.25-83.414 71.106-83.414 35.534 0 91.696 6.474 133.666 6.474 45.473 0 59.7-15.507 59.7-30.415 0-19.498-18.481-27.591-54.016-34.33l-98.132-18.858C43.363 425.016 0 368.967 0 309.341c0-72.724 51.193-133.44 152.148-144.469 76.075-8.394 169.202.98 220.395 7.189 2.108 8.734 2.824 17.203 2.824 25.936 0 67.83-35.535 82.473-70.391 82.473-25.56 0-66.815-4.893-113.718-4.893-47.653 0-67.566 13.212-67.566 29.135 0 16.902 19.197 23.677 48.369 29.135l93.842 17.203c95.271 17.503 136.49 72.046 136.49 139.161zm513.286 297.033c10.69 5.609 31.997 12.008 59.738 12.723 46.902.905 72.499-16.863 91.696-59.361l253.105-564.065c-9.94-5.495-33.426-11.744-52.623-11.97-31.996-.715-76.075 5.76-103.78 72.235l-81.758 193.329-160.693-261.423c-10.653-3.2-35.535-7.68-54.017-7.68-56.877 0-88.873 20.742-121.583 56.388L590.076 388.39l125.122 197.432c23.488 36.1 54.054 54.507 103.101 54.507 32.71 0 59.701-7.454 72.5-13.628l-150.72-227.733 106.64-113.793 175.6 276.03-106.64 226.04z" fill-rule="nonzero" fill="#CCC"/></svg>